Eczar-Regular.ufo
<glyph name="exclam" format="1">
  <advance width="459"/>
  <unicode hex="0021"/>
  <outline>
    <contour>
      <point x="234" y="210" type="line"/>
      <point x="263" y="494"/>
      <point x="268" y="634"/>
      <point x="268" y="634" type="curve"/>
      <point x="249" y="664"/>
      <point x="171" y="662"/>
      <point x="145" y="636" type="curve"/>
      <point x="177" y="210" type="line"/>
    </contour>
    <contour>
      <point x="274" y="54"/>
      <point x="271" y="99"/>
      <point x="201" y="126" type="curve"/>
      <point x="201" y="126"/>
      <point x="143" y="102"/>
      <point x="137" y="43" type="curve"/>
      <point x="137" y="43"/>
      <point x="152" y="-7"/>
      <point x="213" y="-18" type="curve"/>
      <point x="265" y="4"/>
      <point x="274" y="54"/>
      <point x="274" y="54" type="curve"/>
    </contour>
  </outline>
</glyph>
<glyph name="parenleft" format="1">
  <advance width="404"/>
  <unicode hex="0028"/>
  <outline>
    <contour>
      <point x="259" y="-98" type="line"/>
      <point x="259" y="-98"/>
      <point x="-7" y="265"/>
      <point x="268" y="676" type="curve"/>
      <point x="226" y="702" type="line"/>
      <point x="-144" y="252"/>
      <point x="215" y="-125"/>
      <point x="215" y="-125" type="curve"/>
    </contour>
  </outline>
</glyph>
<glyph name="parenright" format="1">
  <advance width="431"/>
  <unicode hex="0029"/>
  <outline>
    <contour>
      <point x="184" y="675" type="line"/>
      <point x="184" y="675"/>
      <point x="450" y="312"/>
      <point x="175" y="-99" type="curve"/>
      <point x="217" y="-125" type="line"/>
      <point x="587" y="325"/>
      <point x="228" y="702"/>
      <point x="228" y="702" type="curve"/>
    </contour>
  </outline>
</glyph>
<glyph name="asterisk" format="1">
  <advance width="587"/>
  <unicode hex="002A"/>
  <outline>
    <contour>
      <point x="368" y="559" type="line"/>
      <point x="368" y="559"/>
      <point x="443" y="578"/>
      <point x="512" y="592" type="curve"/>
      <point x="470" y="661" type="line"/>
      <point x="353" y="596" type="line"/>
    </contour>
    <contour>
      <point x="342" y="587" type="line"/>
      <point x="342" y="587"/>
      <point x="348" y="664"/>
      <point x="355" y="735" type="curve"/>
      <point x="277" y="716" type="line"/>
      <point x="302" y="584" type="line"/>
    </contour>
    <contour>
      <point x="311" y="569" type="line"/>
      <point x="311" y="569"/>
      <point x="240" y="598"/>
      <point x="175" y="627" type="curve"/>
      <point x="168" y="546" type="line"/>
      <point x="302" y="530" type="line"/>
    </contour>
    <contour>
      <point x="316" y="531" type="line"/>
      <point x="316" y="531"/>
      <point x="266" y="472"/>
      <point x="219" y="419" type="curve"/>
      <point x="294" y="387" type="line"/>
      <point x="350" y="510" type="line"/>
    </contour>
    <contour>
      <point x="354" y="526" type="line"/>
      <point x="354" y="526"/>
      <point x="394" y="461"/>
      <point x="430" y="399" type="curve"/>
      <point x="484" y="460" type="line"/>
      <point x="385" y="552" type="line"/>
    </contour>
  </outline>
</glyph>
<glyph name="comma" format="1">
  <advance width="366"/>
  <unicode hex="002C"/>
  <outline>
    <contour>
      <point x="130" y="-146" type="line"/>
      <point x="272" y="-66"/>
      <point x="247" y="50"/>
      <point x="247" y="50" type="curve"/>
      <point x="247" y="50"/>
      <point x="244" y="93"/>
      <point x="178" y="120" type="curve"/>
      <point x="178" y="120"/>
      <point x="123" y="96"/>
      <point x="117" y="40" type="curve"/>
      <point x="169" y="0" type="line"/>
      <point x="169" y="0"/>
      <point x="165" y="-61"/>
      <point x="101" y="-108" type="curve"/>
    </contour>
  </outline>
</glyph>
<glyph name="slash" format="1">
  <advance width="491"/>
  <unicode hex="002F"/>
  <outline>
    <contour>
      <point x="127" y="-97" type="line"/>
      <point x="397" y="612" type="line"/>
      <point x="333" y="638" type="line"/>
      <point x="64" y="-70" type="line"/>
    </contour>
  </outline>
</glyph>
<glyph name="A" format="1">
  <advance width="736"/>
  <unicode hex="0041"/>
  <outline>
    <contour>
      <point x="67" y="0" type="line"/>
      <point x="147" y="0" type="line"/>
      <point x="387" y="612" type="line"/>
      <point x="330" y="637" type="line"/>
    </contour>
    <contour>
      <point x="320" y="647" type="line"/>
      <point x="575" y="0" type="line"/>
      <point x="676" y="0" type="line"/>
      <point x="399" y="674" type="line"/>
    </contour>
    <contour>
      <point x="212" y="262" type="line"/>
      <point x="212" y="201" type="line"/>
      <point x="503" y="201" type="line"/>
      <point x="503" y="262" type="line"/>
    </contour>
    <contour>
      <point x="76" y="57"/>
      <point x="40" y="46"/>
      <point x="10" y="32" type="curve"/>
      <point x="16" y="0" type="line"/>
      <point x="110" y="0" type="line"/>
      <point x="109" y="67" type="line"/>
    </contour>
    <contour>
      <point x="134" y="0" type="line"/>
      <point x="274" y="0" type="line"/>
      <point x="275" y="47" type="line"/>
      <point x="137" y="63" type="line"/>
    </contour>
    <contour>
      <point x="517" y="57"/>
      <point x="481" y="46"/>
      <point x="451" y="32" type="curve"/>
      <point x="457" y="0" type="line"/>
      <point x="603" y="0" type="line"/>
      <point x="550" y="67" type="line"/>
    </contour>
    <contour>
      <point x="585" y="0" type="line"/>
      <point x="725" y="0" type="line"/>
      <point x="726" y="47" type="line"/>
      <point x="588" y="63" type="line"/>
    </contour>
    <contour>
      <point x="658" y="1" type="move" name="ogonek"/>
    </contour>
    <contour>
      <point x="364" y="650" type="move" name="top"/>
    </contour>
  </outline>
</glyph>
<glyph name="C" format="1">
  <advance width="607"/>
  <unicode hex="0043"/>
  <outline>
    <contour>
      <point x="552" y="117" type="line"/>
      <point x="388" y="63" type="line"/>
      <point x="226" y="50"/>
      <point x="144" y="191"/>
      <point x="144" y="335" type="curve" smooth="yes"/>
      <point x="144" y="444"/>
      <point x="187" y="549"/>
      <point x="273" y="598" type="curve"/>
      <point x="376" y="607"/>
      <point x="465" y="582"/>
      <point x="538" y="521" type="curve"/>
      <point x="564" y="609" type="line"/>
      <point x="533" y="633"/>
      <point x="462" y="670"/>
      <point x="364" y="670" type="curve" smooth="yes"/>
      <point x="152" y="670"/>
      <point x="42" y="492"/>
      <point x="42" y="313" type="curve" smooth="yes"/>
      <point x="42" y="142"/>
      <point x="147" y="-23"/>
      <point x="364" y="-20" type="curve"/>
      <point x="571" y="74" type="line"/>
    </contour>
    <contour>
      <point x="547" y="454" type="line"/>
      <point x="566" y="511"/>
      <point x="567" y="576"/>
      <point x="564" y="609" type="curve"/>
      <point x="479" y="564" type="line"/>
      <point x="487" y="459" type="line"/>
    </contour>
    <contour>
      <point x="351" y="650" type="move" name="top"/>
    </contour>
    <contour>
      <point x="351" y="0" type="move" name="bottom"/>
    </contour>
  </outline>
</glyph>
<glyph name="D" format="1">
  <advance width="674"/>
  <unicode hex="0044"/>
  <outline>
    <contour>
      <point x="45" y="650" type="line"/>
      <point x="191" y="586" type="line"/>
      <point x="402" y="599" type="line"/>
      <point x="484" y="557"/>
      <point x="531" y="445"/>
      <point x="531" y="335" type="curve" smooth="yes"/>
      <point x="531" y="169"/>
      <point x="426" y="5"/>
      <point x="176" y="79" type="curve"/>
      <point x="180" y="0" type="line"/>
      <point x="302" y="0" type="line" smooth="yes"/>
      <point x="526" y="0"/>
      <point x="632" y="172"/>
      <point x="632" y="341" type="curve" smooth="yes"/>
      <point x="632" y="501"/>
      <point x="535" y="658"/>
      <point x="352" y="658" type="curve"/>
    </contour>
    <contour>
      <point x="96" y="57"/>
      <point x="60" y="46"/>
      <point x="30" y="32" type="curve"/>
      <point x="36" y="0" type="line"/>
      <point x="130" y="0" type="line"/>
      <point x="129" y="67" type="line"/>
    </contour>
    <contour>
      <point x="115" y="648" type="line"/>
      <point x="115" y="0" type="line"/>
      <point x="208" y="0" type="line"/>
      <point x="208" y="648" type="line"/>
    </contour>
    <contour>
      <point x="45" y="650" type="line"/>
      <point x="44" y="602" type="line"/>
      <point x="140" y="596" type="line"/>
      <point x="138" y="650" type="line"/>
    </contour>
    <contour>
      <point x="335" y="325" type="move" name="center"/>
    </contour>
    <contour>
      <point x="302" y="0" type="move" name="bottom"/>
    </contour>
    <contour>
      <point x="302" y="650" type="move" name="top"/>
    </contour>
  </outline>
</glyph>
<glyph name="G" format="1">
  <advance width="691"/>
  <unicode hex="0047"/>
  <outline>
    <contour>
      <point x="159" y="670"/>
      <point x="42" y="491"/>
      <point x="42" y="311" type="curve" smooth="yes"/>
      <point x="42" y="138"/>
      <point x="157" y="-33"/>
      <point x="396" y="-20" type="curve"/>
      <point x="585" y="71" type="line"/>
      <point x="547" y="96" type="line"/>
      <point x="505" y="75"/>
      <point x="434" y="54"/>
      <point x="369" y="54" type="curve" smooth="yes"/>
      <point x="220" y="54"/>
      <point x="149" y="184"/>
      <point x="149" y="319" type="curve" smooth="yes"/>
      <point x="149" y="433"/>
      <point x="195" y="545"/>
      <point x="286" y="595" type="curve"/>
      <point x="454" y="617"/>
      <point x="558" y="516"/>
      <point x="558" y="516" type="curve"/>
      <point x="586" y="609" type="line"/>
      <point x="555" y="633"/>
      <point x="484" y="670"/>
      <point x="386" y="670" type="curve" smooth="yes"/>
    </contour>
    <contour>
      <point x="388" y="266" type="line"/>
      <point x="431" y="246"/>
      <point x="484" y="231"/>
      <point x="521" y="221" type="curve"/>
      <point x="506" y="301" type="line"/>
      <point x="394" y="301" type="line"/>
    </contour>
    <contour>
      <point x="498" y="59" type="line"/>
      <point x="585" y="71" type="line"/>
      <point x="585" y="301" type="line"/>
      <point x="498" y="301" type="line"/>
    </contour>
    <contour>
      <point x="484" y="301" type="line"/>
      <point x="515" y="233" type="line"/>
      <point x="667" y="252" type="line"/>
      <point x="666" y="301" type="line"/>
    </contour>
    <contour>
      <point x="569" y="464" type="line"/>
      <point x="586" y="523"/>
      <point x="589" y="576"/>
      <point x="586" y="609" type="curve"/>
      <point x="501" y="564" type="line"/>
      <point x="509" y="469" type="line"/>
    </contour>
    <contour>
      <point x="366" y="650" type="move" name="top"/>
    </contour>
    <contour>
      <point x="366" y="0" type="move" name="bottom"/>
    </contour>
  </outline>
</glyph>
<glyph name="I" format="1">
  <advance width="335"/>
  <unicode hex="0049"/>
  <outline>
    <contour>
      <point x="208" y="0" type="line"/>
      <point x="208" y="650" type="line"/>
      <point x="115" y="650" type="line"/>
      <point x="115" y="0" type="line"/>
    </contour>
    <contour>
      <point x="130" y="0" type="line"/>
      <point x="129" y="67" type="line"/>
      <point x="96" y="57"/>
      <point x="60" y="46"/>
      <point x="30" y="32" type="curve"/>
      <point x="36" y="0" type="line"/>
    </contour>
    <contour>
      <point x="304" y="0" type="line"/>
      <point x="305" y="47" type="line"/>
      <point x="167" y="63" type="line"/>
      <point x="164" y="0" type="line"/>
    </contour>
    <contour>
      <point x="39" y="650" type="line"/>
      <point x="38" y="603" type="line"/>
      <point x="176" y="587" type="line"/>
      <point x="179" y="650" type="line"/>
    </contour>
    <contour>
      <point x="193" y="650" type="line"/>
      <point x="194" y="583" type="line"/>
      <point x="227" y="593"/>
      <point x="263" y="604"/>
      <point x="293" y="618" type="curve"/>
      <point x="287" y="650" type="line"/>
    </contour>
    <contour>
      <point x="232" y="1" type="move" name="ogonek"/>
    </contour>
    <contour>
      <point x="162" y="650" type="move" name="top"/>
    </contour>
  </outline>
</glyph>
<glyph name="O" format="1">
  <advance width="692"/>
  <unicode hex="004F"/>
  <outline>
    <contour>
      <point x="168" y="670"/>
      <point x="42" y="524"/>
      <point x="42" y="331" type="curve" smooth="yes"/>
      <point x="42" y="86"/>
      <point x="196" y="-20"/>
      <point x="350" y="-20" type="curve" smooth="yes"/>
      <point x="501" y="-20"/>
      <point x="650" y="79"/>
      <point x="650" y="331" type="curve" smooth="yes"/>
      <point x="650" y="533"/>
      <point x="507" y="670"/>
      <point x="349" y="670" type="curve" smooth="yes"/>
    </contour>
    <contour>
      <point x="270" y="596"/>
      <point x="302" y="601"/>
      <point x="331" y="601" type="curve" smooth="yes"/>
      <point x="482" y="601"/>
      <point x="544" y="457"/>
      <point x="544" y="313" type="curve" smooth="yes"/>
      <point x="544" y="205"/>
      <point x="508" y="101"/>
      <point x="446" y="61" type="curve"/>
      <point x="418" y="54"/>
      <point x="393" y="51"/>
      <point x="369" y="51" type="curve" smooth="yes"/>
      <point x="210" y="51"/>
      <point x="147" y="193"/>
      <point x="147" y="335" type="curve" smooth="yes"/>
      <point x="147" y="440"/>
      <point x="180" y="542"/>
      <point x="235" y="584" type="curve"/>
    </contour>
    <contour>
      <point x="346" y="650" type="move" name="top"/>
    </contour>
  </outline>
</glyph>
<glyph name="Q" format="1">
  <advance width="714"/>
  <unicode hex="0051"/>
  <outline>
    <contour>
      <point x="168" y="670"/>
      <point x="42" y="524"/>
      <point x="42" y="331" type="curve" smooth="yes"/>
      <point x="42" y="86"/>
      <point x="196" y="-20"/>
      <point x="350" y="-20" type="curve" smooth="yes"/>
      <point x="501" y="-20"/>
      <point x="650" y="79"/>
      <point x="650" y="331" type="curve" smooth="yes"/>
      <point x="650" y="533"/>
      <point x="507" y="670"/>
      <point x="349" y="670" type="curve" smooth="yes"/>
    </contour>
    <contour>
      <point x="270" y="596"/>
      <point x="302" y="601"/>
      <point x="331" y="601" type="curve" smooth="yes"/>
      <point x="482" y="601"/>
      <point x="544" y="457"/>
      <point x="544" y="313" type="curve" smooth="yes"/>
      <point x="544" y="205"/>
      <point x="508" y="101"/>
      <point x="446" y="61" type="curve"/>
      <point x="418" y="54"/>
      <point x="393" y="51"/>
      <point x="369" y="51" type="curve" smooth="yes"/>
      <point x="210" y="51"/>
      <point x="147" y="193"/>
      <point x="147" y="335" type="curve" smooth="yes"/>
      <point x="147" y="440"/>
      <point x="180" y="542"/>
      <point x="235" y="584" type="curve"/>
    </contour>
    <contour>
      <point x="368" y="-3" type="line"/>
      <point x="712" y="-162" type="line"/>
      <point x="751" y="-64" type="line"/>
      <point x="403" y="34" type="line"/>
    </contour>
  </outline>
</glyph>
<glyph name="S" format="1">
  <advance width="543"/>
  <unicode hex="0053"/>
  <outline>
    <contour>
      <point x="190" y="670"/>
      <point x="85" y="605"/>
      <point x="85" y="481" type="curve" smooth="yes"/>
      <point x="85" y="384"/>
      <point x="168" y="345"/>
      <point x="250" y="306" type="curve" smooth="yes"/>
      <point x="329" y="268"/>
      <point x="407" y="231"/>
      <point x="407" y="144" type="curve" smooth="yes"/>
      <point x="407" y="129"/>
      <point x="400" y="90"/>
      <point x="374" y="66" type="curve"/>
      <point x="288" y="36"/>
      <point x="194" y="59"/>
      <point x="122" y="136" type="curve"/>
      <point x="85" y="41" type="line"/>
      <point x="153" y="2"/>
      <point x="222" y="-16"/>
      <point x="283" y="-16" type="curve" smooth="yes"/>
      <point x="403" y="-16"/>
      <point x="494" y="55"/>
      <point x="494" y="183" type="curve" smooth="yes"/>
      <point x="494" y="296"/>
      <point x="395" y="342"/>
      <point x="308" y="383" type="curve" smooth="yes"/>
      <point x="240" y="415"/>
      <point x="178" y="444"/>
      <point x="178" y="500" type="curve" smooth="yes"/>
      <point x="178" y="545"/>
      <point x="196" y="575"/>
      <point x="217" y="594" type="curve"/>
      <point x="339" y="630"/>
      <point x="422" y="550"/>
      <point x="422" y="550" type="curve"/>
      <point x="473" y="639" type="line"/>
      <point x="433" y="652"/>
      <point x="371" y="670"/>
      <point x="311" y="670" type="curve" smooth="yes"/>
    </contour>
    <contour>
      <point x="463" y="470" type="line"/>
      <point x="474" y="531"/>
      <point x="476" y="606"/>
      <point x="473" y="639" type="curve"/>
      <point x="393" y="594" type="line"/>
      <point x="409" y="472" type="line"/>
    </contour>
    <contour>
      <point x="84" y="149"/>
      <point x="82" y="74"/>
      <point x="85" y="41" type="curve"/>
      <point x="165" y="86" type="line"/>
      <point x="149" y="208" type="line"/>
      <point x="95" y="210" type="line"/>
    </contour>
    <contour>
      <point x="302" y="650" type="move" name="top"/>
    </contour>
    <contour>
      <point x="289" y="0" type="move" name="bottom"/>
    </contour>
  </outline>
</glyph>
<glyph name="T" format="1">
  <advance width="589"/>
  <unicode hex="0054"/>
  <outline>
    <contour>
      <point x="248" y="650" type="line"/>
      <point x="248" y="0" type="line"/>
      <point x="341" y="0" type="line"/>
      <point x="341" y="650" type="line"/>
    </contour>
    <contour>
      <point x="226" y="57"/>
      <point x="175" y="46"/>
      <point x="145" y="32" type="curve"/>
      <point x="151" y="0" type="line"/>
      <point x="260" y="0" type="line"/>
      <point x="259" y="67" type="line"/>
    </contour>
    <contour>
      <point x="317" y="0" type="line"/>
      <point x="457" y="0" type="line"/>
      <point x="458" y="47" type="line"/>
      <point x="320" y="63" type="line"/>
    </contour>
    <contour>
      <point x="399" y="650"/>
      <point x="192" y="650"/>
      <point x="7" y="656" type="curve"/>
      <point x="24" y="585" type="line"/>
      <point x="295" y="592" type="line"/>
      <point x="566" y="585" type="line"/>
      <point x="582" y="656" type="line"/>
    </contour>
    <contour>
      <point x="572" y="487" type="line"/>
      <point x="583" y="548"/>
      <point x="585" y="623"/>
      <point x="582" y="656" type="curve"/>
      <point x="502" y="611" type="line"/>
      <point x="518" y="489" type="line" smooth="yes"/>
    </contour>
    <contour>
      <point x="87" y="611" type="line"/>
      <point x="7" y="656" type="line"/>
      <point x="4" y="623"/>
      <point x="6" y="548"/>
      <point x="17" y="487" type="curve"/>
      <point x="71" y="489" type="line"/>
    </contour>
    <contour>
      <point x="295" y="325" type="move" name="center"/>
    </contour>
    <contour>
      <point x="295" y="0" type="move" name="bottom"/>
    </contour>
    <contour>
      <point x="295" y="650" type="move" name="top"/>
    </contour>
  </outline>
</glyph>
<glyph name="U" format="1">
  <advance width="740"/>
  <unicode hex="0055"/>
  <outline>
    <contour>
      <point x="551" y="650" type="line"/>
      <point x="551" y="253" type="line" smooth="yes"/>
      <point x="551" y="179"/>
      <point x="532" y="108"/>
      <point x="493" y="75" type="curve"/>
      <point x="455" y="59"/>
      <point x="418" y="51"/>
      <point x="382" y="51" type="curve" smooth="yes"/>
      <point x="281" y="51"/>
      <point x="200" y="116"/>
      <point x="200" y="243" type="curve" smooth="yes"/>
      <point x="200" y="650" type="line"/>
      <point x="107" y="650" type="line"/>
      <point x="107" y="243" type="line" smooth="yes"/>
      <point x="107" y="70"/>
      <point x="213" y="-18"/>
      <point x="374" y="-18" type="curve" smooth="yes"/>
      <point x="510" y="-18"/>
      <point x="625" y="68"/>
      <point x="625" y="243" type="curve" smooth="yes"/>
      <point x="625" y="650" type="line"/>
    </contour>
    <contour>
      <point x="31" y="650" type="line"/>
      <point x="30" y="603" type="line"/>
      <point x="168" y="587" type="line"/>
      <point x="171" y="650" type="line"/>
    </contour>
    <contour>
      <point x="185" y="650" type="line"/>
      <point x="186" y="583" type="line"/>
      <point x="219" y="593"/>
      <point x="255" y="604"/>
      <point x="285" y="618" type="curve"/>
      <point x="279" y="650" type="line"/>
    </contour>
    <contour>
      <point x="463" y="650" type="line"/>
      <point x="462" y="603" type="line"/>
      <point x="600" y="587" type="line"/>
      <point x="603" y="650" type="line"/>
    </contour>
    <contour>
      <point x="610" y="650" type="line"/>
      <point x="611" y="583" type="line"/>
      <point x="644" y="593"/>
      <point x="680" y="604"/>
      <point x="710" y="618" type="curve"/>
      <point x="704" y="650" type="line"/>
    </contour>
    <contour>
      <point x="477" y="1" type="move" name="ogonek"/>
    </contour>
    <contour>
      <point x="375" y="650" type="move" name="top"/>
    </contour>
  </outline>
</glyph>
<glyph name="V" format="1">
  <advance width="700"/>
  <unicode hex="0056"/>
  <outline>
    <contour>
      <point x="70" y="650" type="line"/>
      <point x="297" y="-10" type="line"/>
      <point x="330" y="-11"/>
      <point x="362" y="-8"/>
      <point x="393" y="-3" type="curve"/>
      <point x="365" y="59" type="line"/>
      <point x="345" y="59" type="line"/>
      <point x="332" y="177" type="line"/>
      <point x="171" y="650" type="line"/>
    </contour>
    <contour>
      <point x="11" y="650" type="line"/>
      <point x="10" y="603" type="line"/>
      <point x="148" y="587" type="line"/>
      <point x="151" y="650" type="line"/>
    </contour>
    <contour>
      <point x="393" y="-3" type="line"/>
      <point x="634" y="650" type="line"/>
      <point x="552" y="650" type="line"/>
      <point x="342" y="33" type="line"/>
    </contour>
    <contour>
      <point x="164" y="650" type="line"/>
      <point x="185" y="583" type="line"/>
      <point x="218" y="593"/>
      <point x="254" y="604"/>
      <point x="284" y="618" type="curve"/>
      <point x="278" y="650" type="line"/>
    </contour>
    <contour>
      <point x="445" y="650" type="line"/>
      <point x="444" y="603" type="line"/>
      <point x="582" y="587" type="line"/>
      <point x="585" y="650" type="line"/>
    </contour>
    <contour>
      <point x="570" y="650" type="line"/>
      <point x="591" y="583" type="line"/>
      <point x="624" y="593"/>
      <point x="660" y="604"/>
      <point x="690" y="618" type="curve"/>
      <point x="684" y="650" type="line"/>
    </contour>
  </outline>
</glyph>
<glyph name="W" format="1">
  <advance width="939"/>
  <unicode hex="0057"/>
  <outline>
    <contour>
      <point x="11" y="650" type="line"/>
      <point x="10" y="603" type="line"/>
      <point x="148" y="587" type="line"/>
      <point x="151" y="650" type="line"/>
    </contour>
    <contour>
      <point x="154" y="650" type="line"/>
      <point x="175" y="583" type="line"/>
      <point x="208" y="593"/>
      <point x="244" y="604"/>
      <point x="274" y="618" type="curve"/>
      <point x="268" y="650" type="line"/>
    </contour>
    <contour>
      <point x="69" y="650" type="line"/>
      <point x="256" y="-10" type="line"/>
      <point x="293" y="-13"/>
      <point x="328" y="-10"/>
      <point x="363" y="-3" type="curve"/>
      <point x="335" y="59" type="line"/>
      <point x="310" y="59" type="line"/>
      <point x="299" y="175" type="line"/>
      <point x="169" y="650" type="line"/>
    </contour>
    <contour>
      <point x="312" y="33" type="line"/>
      <point x="363" y="-3" type="line"/>
      <point x="445" y="259" type="line"/>
      <point x="464" y="372" type="line"/>
      <point x="481" y="372" type="line"/>
      <point x="508" y="442" type="line"/>
      <point x="444" y="483" type="line"/>
    </contour>
    <contour>
      <point x="398" y="614" type="line"/>
      <point x="574" y="-10" type="line"/>
      <point x="611" y="-13"/>
      <point x="648" y="-10"/>
      <point x="683" y="-3" type="curve"/>
      <point x="655" y="59" type="line"/>
      <point x="625" y="59" type="line"/>
      <point x="609" y="172" type="line"/>
      <point x="495" y="639" type="line"/>
    </contour>
    <contour>
      <point x="683" y="-3" type="line"/>
      <point x="867" y="650" type="line"/>
      <point x="790" y="650" type="line"/>
      <point x="631" y="33" type="line"/>
    </contour>
    <contour>
      <point x="674" y="650" type="line"/>
      <point x="673" y="603" type="line"/>
      <point x="811" y="587" type="line"/>
      <point x="814" y="650" type="line"/>
    </contour>
    <contour>
      <point x="809" y="650" type="line"/>
      <point x="830" y="583" type="line"/>
      <point x="863" y="593"/>
      <point x="899" y="604"/>
      <point x="929" y="618" type="curve"/>
      <point x="923" y="650" type="line"/>
    </contour>
    <contour>
      <point x="455" y="650" type="move" name="top"/>
    </contour>
  </outline>
</glyph>
<glyph name="X" format="1">
  <advance width="700"/>
  <unicode hex="0058"/>
  <outline>
    <contour>
      <point x="201" y="587" type="line"/>
      <point x="204" y="650" type="line"/>
      <point x="64" y="650" type="line"/>
      <point x="63" y="603" type="line"/>
    </contour>
    <contour>
      <point x="177" y="650" type="line"/>
      <point x="198" y="583" type="line"/>
      <point x="231" y="593"/>
      <point x="267" y="604"/>
      <point x="297" y="618" type="curve"/>
      <point x="291" y="650" type="line"/>
    </contour>
    <contour>
      <point x="414" y="650" type="line"/>
      <point x="413" y="603" type="line"/>
      <point x="551" y="587" type="line"/>
      <point x="554" y="650" type="line"/>
    </contour>
    <contour>
      <point x="520" y="650" type="line"/>
      <point x="541" y="583" type="line"/>
      <point x="574" y="593"/>
      <point x="610" y="604"/>
      <point x="640" y="618" type="curve"/>
      <point x="634" y="650" type="line"/>
    </contour>
    <contour>
      <point x="91" y="57"/>
      <point x="55" y="46"/>
      <point x="25" y="32" type="curve"/>
      <point x="31" y="0" type="line"/>
      <point x="145" y="0" type="line"/>
      <point x="124" y="67" type="line"/>
    </contour>
    <contour>
      <point x="137" y="0" type="line"/>
      <point x="277" y="0" type="line"/>
      <point x="278" y="47" type="line"/>
      <point x="140" y="63" type="line"/>
    </contour>
    <contour>
      <point x="483" y="57"/>
      <point x="447" y="46"/>
      <point x="417" y="32" type="curve"/>
      <point x="423" y="0" type="line"/>
      <point x="537" y="0" type="line"/>
      <point x="516" y="67" type="line"/>
    </contour>
    <contour>
      <point x="534" y="0" type="line"/>
      <point x="674" y="0" type="line"/>
      <point x="675" y="47" type="line"/>
      <point x="517" y="63" type="line"/>
    </contour>
    <contour>
      <point x="95" y="650" type="line"/>
      <point x="526" y="0" type="line"/>
      <point x="640" y="0" type="line"/>
      <point x="202" y="650" type="line"/>
    </contour>
    <contour>
      <point x="520" y="650" type="line"/>
      <point x="353" y="380" type="line"/>
      <point x="398" y="344" type="line"/>
      <point x="604" y="650" type="line"/>
    </contour>
    <contour>
      <point x="55" y="0" type="line"/>
      <point x="152" y="0" type="line"/>
      <point x="360" y="332" type="line"/>
      <point x="308" y="368" type="line"/>
    </contour>
  </outline>
</glyph>
<glyph name="Z" format="1">
  <advance width="565"/>
  <unicode hex="005A"/>
  <outline>
    <contour>
      <point x="71" y="578" type="line"/>
      <point x="448" y="590" type="line"/>
      <point x="496" y="650" type="line"/>
      <point x="54" y="650" type="line"/>
    </contour>
    <contour>
      <point x="443" y="607" type="line"/>
      <point x="408" y="595" type="line"/>
      <point x="15" y="12" type="line"/>
      <point x="53" y="-18" type="line"/>
      <point x="103" y="31" type="line"/>
      <point x="139" y="47" type="line"/>
      <point x="540" y="642" type="line"/>
      <point x="503" y="670" type="line"/>
    </contour>
    <contour>
      <point x="113" y="74" type="line"/>
      <point x="44" y="8" type="line"/>
      <point x="517" y="-5" type="line"/>
      <point x="500" y="76" type="line"/>
    </contour>
    <contour>
      <point x="134" y="605" type="line"/>
      <point x="54" y="650" type="line"/>
      <point x="51" y="617"/>
      <point x="53" y="529"/>
      <point x="64" y="468" type="curve"/>
      <point x="118" y="470" type="line"/>
    </contour>
    <contour>
      <point x="442" y="35" type="line"/>
      <point x="517" y="-5" type="line"/>
      <point x="522" y="59"/>
      <point x="529" y="124"/>
      <point x="531" y="185" type="curve"/>
      <point x="474" y="191" type="line"/>
    </contour>
    <contour>
      <point x="288" y="650" type="move" name="top"/>
    </contour>
  </outline>
</glyph>
<glyph name="b" format="1">
  <advance width="560"/>
  <unicode hex="0062"/>
  <outline>
    <contour>
      <point x="22" y="657" type="line"/>
      <point x="115" y="664" type="line"/>
      <point x="159" y="710" type="line"/>
      <point x="146" y="735" type="line"/>
      <point x="104" y="734"/>
      <point x="50" y="722"/>
      <point x="10" y="704" type="curve"/>
    </contour>
    <contour>
      <point x="146" y="735" type="line"/>
      <point x="96" y="698" type="line"/>
      <point x="96" y="24" type="line"/>
      <point x="186" y="47" type="line"/>
      <point x="186" y="699" type="line"/>
    </contour>
    <contour>
      <point x="157" y="334" type="line"/>
      <point x="208" y="370"/>
      <point x="260" y="406"/>
      <point x="308" y="406" type="curve" smooth="yes"/>
      <point x="382" y="406"/>
      <point x="431" y="320"/>
      <point x="431" y="230" type="curve" smooth="yes"/>
      <point x="431" y="158"/>
      <point x="400" y="83"/>
      <point x="346" y="50" type="curve"/>
      <point x="243" y="34"/>
      <point x="173" y="84"/>
      <point x="158" y="113" type="curve"/>
      <point x="96" y="24" type="line"/>
      <point x="157" y="-4"/>
      <point x="213" y="-19"/>
      <point x="267" y="-19" type="curve" smooth="yes"/>
      <point x="418" y="-19"/>
      <point x="523" y="96"/>
      <point x="523" y="250" type="curve" smooth="yes"/>
      <point x="523" y="390"/>
      <point x="436" y="504"/>
      <point x="303" y="484" type="curve"/>
      <point x="148" y="383" type="line"/>
    </contour>
  </outline>
</glyph>
<glyph name="c" format="1">
  <advance width="434"/>
  <unicode hex="0063"/>
  <outline>
    <contour>
      <point x="386" y="82" type="line"/>
      <point x="350" y="66"/>
      <point x="311" y="59"/>
      <point x="282" y="59" type="curve" smooth="yes"/>
      <point x="179" y="59"/>
      <point x="122" y="144"/>
      <point x="122" y="250" type="curve" smooth="yes"/>
      <point x="122" y="312"/>
      <point x="142" y="376"/>
      <point x="184" y="425" type="curve"/>
      <point x="243" y="421"/>
      <point x="305" y="391"/>
      <point x="356" y="351" type="curve"/>
      <point x="409" y="422" type="line"/>
      <point x="365" y="465"/>
      <point x="318" y="488"/>
      <point x="258" y="488" type="curve" smooth="yes"/>
      <point x="126" y="488"/>
      <point x="33" y="376"/>
      <point x="33" y="231" type="curve" smooth="yes"/>
      <point x="33" y="98"/>
      <point x="112" y="-18"/>
      <point x="267" y="-15" type="curve"/>
      <point x="403" y="40" type="line"/>
    </contour>
    <contour>
      <point x="245" y="468" type="move" name="top"/>
    </contour>
    <contour>
      <point x="245" y="0" type="move" name="bottom"/>
    </contour>
  </outline>
</glyph>
<glyph name="d" format="1">
  <advance width="544"/>
  <unicode hex="0064"/>
  <outline>
    <contour>
      <point x="376" y="664" type="line"/>
      <point x="420" y="710" type="line"/>
      <point x="407" y="735" type="line"/>
      <point x="365" y="734"/>
      <point x="311" y="722"/>
      <point x="271" y="704" type="curve"/>
      <point x="283" y="657" type="line"/>
    </contour>
    <contour>
      <point x="519" y="75" type="line"/>
      <point x="505" y="71"/>
      <point x="487" y="66"/>
      <point x="473" y="66" type="curve" smooth="yes"/>
      <point x="458" y="66"/>
      <point x="447" y="71"/>
      <point x="447" y="86" type="curve" smooth="yes"/>
      <point x="447" y="699" type="line"/>
      <point x="407" y="735" type="line"/>
      <point x="358" y="698" type="line"/>
      <point x="358" y="82" type="line"/>
      <point x="358" y="68" type="line"/>
      <point x="367" y="29"/>
      <point x="411" y="-13"/>
      <point x="433" y="-15" type="curve"/>
      <point x="534" y="31" type="line"/>
    </contour>
    <contour>
      <point x="410" y="136" type="line"/>
      <point x="348" y="87"/>
      <point x="295" y="67"/>
      <point x="253" y="67" type="curve" smooth="yes"/>
      <point x="170" y="67"/>
      <point x="120" y="143"/>
      <point x="120" y="239" type="curve" smooth="yes"/>
      <point x="120" y="303"/>
      <point x="142" y="373"/>
      <point x="188" y="424" type="curve"/>
      <point x="274" y="443"/>
      <point x="358" y="395"/>
      <point x="391" y="344" type="curve"/>
      <point x="434" y="417" type="line"/>
      <point x="412" y="455"/>
      <point x="356" y="490"/>
      <point x="280" y="490" type="curve" smooth="yes"/>
      <point x="147" y="490"/>
      <point x="29" y="383"/>
      <point x="29" y="228" type="curve" smooth="yes"/>
      <point x="29" y="95"/>
      <point x="117" y="-17"/>
      <point x="252" y="-15" type="curve"/>
      <point x="407" y="89" type="line"/>
    </contour>
    <contour>
      <point x="271" y="234" type="move" name="center"/>
    </contour>
    <contour>
      <point x="523" y="650" type="move" name="topright"/>
    </contour>
  </outline>
</glyph>
<glyph name="e" format="1">
  <advance width="474"/>
  <unicode hex="0065"/>
  <outline>
    <contour>
      <point x="413" y="94" type="line"/>
      <point x="368" y="74"/>
      <point x="325" y="61"/>
      <point x="285" y="61" type="curve" smooth="yes"/>
      <point x="193" y="61"/>
      <point x="121" y="131"/>
      <point x="121" y="243" type="curve" smooth="yes"/>
      <point x="121" y="306"/>
      <point x="144" y="394"/>
      <point x="206" y="427" type="curve"/>
      <point x="294" y="433"/>
      <point x="360" y="366"/>
      <point x="350" y="278" type="curve"/>
      <point x="435" y="313" type="line"/>
      <point x="437" y="414"/>
      <point x="359" y="488"/>
      <point x="257" y="488" type="curve" smooth="yes"/>
      <point x="119" y="488"/>
      <point x="33" y="352"/>
      <point x="33" y="223" type="curve" smooth="yes"/>
      <point x="33" y="103"/>
      <point x="108" y="-15"/>
      <point x="272" y="-15" type="curve"/>
      <point x="428" y="51" type="line"/>
    </contour>
    <contour>
      <point x="113" y="262" type="line"/>
      <point x="378" y="257" type="line"/>
      <point x="435" y="313" type="line"/>
      <point x="424" y="328" type="line"/>
      <point x="113" y="314" type="line"/>
    </contour>
    <contour>
      <point x="428" y="51" type="move" name="ogonek"/>
    </contour>
    <contour>
      <point x="249" y="0" type="move" name="bottom"/>
    </contour>
    <contour>
      <point x="249" y="468" type="move" name="top"/>
    </contour>
  </outline>
</glyph>
<glyph name="f" format="1">
  <advance width="346"/>
  <unicode hex="0066"/>
  <outline>
    <contour>
      <point x="381" y="702" type="line"/>
      <point x="348" y="736"/>
      <point x="307" y="751"/>
      <point x="268" y="751" type="curve" smooth="yes"/>
      <point x="184" y="751"/>
      <point x="103" y="681"/>
      <point x="103" y="563" type="curve" smooth="yes"/>
      <point x="103" y="0" type="line"/>
      <point x="192" y="0" type="line"/>
      <point x="192" y="435" type="line"/>
      <point x="198" y="458" type="line"/>
      <point x="174" y="663" type="line"/>
      <point x="222" y="679"/>
      <point x="279" y="660"/>
      <point x="325" y="622" type="curve"/>
    </contour>
    <contour>
      <point x="127" y="394" type="line"/>
      <point x="170" y="444" type="line"/>
      <point x="148" y="468" type="line"/>
      <point x="113" y="465"/>
      <point x="75" y="458"/>
      <point x="35" y="440" type="curve"/>
      <point x="41" y="391" type="line"/>
    </contour>
    <contour>
      <point x="119" y="0" type="line"/>
      <point x="133" y="67" type="line"/>
      <point x="108" y="60"/>
      <point x="59" y="45"/>
      <point x="35" y="33" type="curve"/>
      <point x="40" y="0" type="line"/>
    </contour>
    <contour>
      <point x="277" y="0" type="line"/>
      <point x="283" y="48" type="line"/>
      <point x="260" y="58"/>
      <point x="219" y="64"/>
      <point x="185" y="67" type="curve"/>
      <point x="184" y="0" type="line"/>
    </contour>
    <contour>
      <point x="148" y="391" type="line"/>
      <point x="258" y="391" type="line"/>
      <point x="305" y="440" type="line"/>
      <point x="302" y="468" type="line"/>
      <point x="148" y="468" type="line"/>
    </contour>
  </outline>
</glyph>
<glyph name="g" format="1">
  <advance width="556"/>
  <unicode hex="0067"/>
  <outline>
    <contour>
      <point x="435" y="528"/>
      <point x="373" y="473"/>
      <point x="370" y="386" type="curve"/>
      <point x="394" y="396" type="line"/>
      <point x="431" y="424"/>
      <point x="475" y="438"/>
      <point x="526" y="438" type="curve"/>
      <point x="507" y="542" type="line"/>
    </contour>
    <contour>
      <point x="346" y="155"/>
      <point x="458" y="215"/>
      <point x="458" y="330" type="curve" smooth="yes"/>
      <point x="458" y="439"/>
      <point x="358" y="496"/>
      <point x="257" y="496" type="curve" smooth="yes"/>
      <point x="154" y="496"/>
      <point x="51" y="438"/>
      <point x="51" y="324" type="curve" smooth="yes"/>
      <point x="51" y="212"/>
      <point x="151" y="155"/>
      <point x="247" y="155" type="curve" smooth="yes"/>
    </contour>
    <contour>
      <point x="331" y="490"/>
      <point x="430" y="321"/>
      <point x="321" y="220" type="curve"/>
      <point x="155" y="168"/>
      <point x="89" y="320"/>
      <point x="175" y="419" type="curve"/>
    </contour>
    <contour>
      <point x="187" y="52" type="line"/>
      <point x="30" y="-89" type="line"/>
      <point x="28" y="-186"/>
      <point x="108" y="-231"/>
      <point x="208" y="-231" type="curve" smooth="yes"/>
      <point x="371" y="-231"/>
      <point x="533" y="-111"/>
      <point x="498" y="48" type="curve"/>
      <point x="410" y="82"/>
      <point x="247" y="94"/>
      <point x="150" y="96" type="curve"/>
      <point x="174" y="123"/>
      <point x="217" y="158"/>
      <point x="255" y="183" type="curve"/>
      <point x="207" y="199" type="line"/>
      <point x="163" y="179"/>
      <point x="95" y="119"/>
      <point x="56" y="72" type="curve"/>
      <point x="78" y="15" type="line"/>
      <point x="225" y="12"/>
      <point x="384" y="1"/>
      <point x="444" y="-35" type="curve"/>
      <point x="396" y="-115"/>
      <point x="296" y="-147"/>
      <point x="220" y="-147" type="curve" smooth="yes"/>
      <point x="157" y="-147"/>
      <point x="120" y="-125"/>
      <point x="120" y="-93" type="curve" smooth="yes"/>
      <point x="120" y="-48"/>
      <point x="194" y="8"/>
      <point x="270" y="49" type="curve"/>
    </contour>
    <contour>
      <point x="254" y="468" type="move" name="top"/>
    </contour>
  </outline>
</glyph>
<glyph name="h" format="1">
  <advance width="596"/>
  <unicode hex="0068"/>
  <outline>
    <contour>
      <point x="128" y="664" type="line"/>
      <point x="172" y="710" type="line"/>
      <point x="159" y="735" type="line"/>
      <point x="117" y="734"/>
      <point x="63" y="722"/>
      <point x="23" y="704" type="curve"/>
      <point x="35" y="657" type="line"/>
    </contour>
    <contour>
      <point x="110" y="0" type="line"/>
      <point x="199" y="0" type="line"/>
      <point x="199" y="700" type="line"/>
      <point x="159" y="735" type="line"/>
      <point x="110" y="698" type="line"/>
    </contour>
    <contour>
      <point x="120" y="0" type="line"/>
      <point x="134" y="67" type="line"/>
      <point x="109" y="60"/>
      <point x="60" y="45"/>
      <point x="36" y="33" type="curve"/>
      <point x="41" y="0" type="line"/>
    </contour>
    <contour>
      <point x="248" y="0" type="line"/>
      <point x="254" y="48" type="line"/>
      <point x="231" y="58"/>
      <point x="190" y="64"/>
      <point x="156" y="67" type="curve"/>
      <point x="155" y="0" type="line"/>
    </contour>
    <contour>
      <point x="442" y="0" type="line"/>
      <point x="456" y="67" type="line"/>
      <point x="431" y="60"/>
      <point x="382" y="45"/>
      <point x="358" y="33" type="curve"/>
      <point x="363" y="0" type="line"/>
    </contour>
    <contour>
      <point x="570" y="0" type="line"/>
      <point x="576" y="48" type="line"/>
      <point x="553" y="58"/>
      <point x="512" y="64"/>
      <point x="478" y="67" type="curve"/>
      <point x="477" y="0" type="line"/>
    </contour>
    <contour>
      <point x="415" y="0" type="line"/>
      <point x="504" y="0" type="line"/>
      <point x="504" y="300" type="line" smooth="yes"/>
      <point x="504" y="370"/>
      <point x="500" y="398"/>
      <point x="490" y="417" type="curve" smooth="yes"/>
      <point x="475" y="445"/>
      <point x="437" y="477"/>
      <point x="399" y="484" type="curve"/>
      <point x="363" y="484"/>
      <point x="270" y="435"/>
      <point x="176" y="370" type="curve"/>
      <point x="194" y="328" type="line"/>
      <point x="242" y="365"/>
      <point x="311" y="404"/>
      <point x="351" y="404" type="curve" smooth="yes"/>
      <point x="385" y="404"/>
      <point x="415" y="377"/>
      <point x="415" y="296" type="curve" smooth="yes"/>
    </contour>
    <contour>
      <point x="302" y="234" type="move" name="center"/>
    </contour>
    <contour>
      <point x="119" y="715" type="move" name="top"/>
    </contour>
  </outline>
</glyph>
<glyph name="i" format="1">
  <advance width="284"/>
  <unicode hex="0069"/>
  <outline>
    <contour>
      <point x="182" y="589"/>
      <point x="208" y="622"/>
      <point x="218" y="649" type="curve"/>
      <point x="203" y="669"/>
      <point x="171" y="698"/>
      <point x="143" y="709" type="curve"/>
      <point x="121" y="695"/>
      <point x="96" y="663"/>
      <point x="82" y="633" type="curve"/>
      <point x="98" y="610"/>
      <point x="134" y="583"/>
      <point x="159" y="573" type="curve"/>
    </contour>
    <contour>
      <point x="128" y="413" type="line"/>
      <point x="172" y="459" type="line"/>
      <point x="159" y="484" type="line"/>
      <point x="117" y="483"/>
      <point x="63" y="471"/>
      <point x="23" y="453" type="curve"/>
      <point x="35" y="406" type="line"/>
    </contour>
    <contour>
      <point x="110" y="0" type="line"/>
      <point x="199" y="0" type="line"/>
      <point x="199" y="449" type="line"/>
      <point x="159" y="484" type="line"/>
      <point x="110" y="447" type="line"/>
    </contour>
    <contour>
      <point x="265" y="0" type="line"/>
      <point x="271" y="48" type="line"/>
      <point x="248" y="58"/>
      <point x="207" y="64"/>
      <point x="173" y="67" type="curve"/>
      <point x="172" y="0" type="line"/>
    </contour>
    <contour>
      <point x="118" y="0" type="line"/>
      <point x="132" y="67" type="line"/>
      <point x="107" y="60"/>
      <point x="58" y="45"/>
      <point x="34" y="33" type="curve"/>
      <point x="39" y="0" type="line"/>
    </contour>
    <contour>
      <point x="238" y="0" type="move" name="ogonek"/>
    </contour>
  </outline>
</glyph>
<glyph name="j" format="1">
  <advance width="277"/>
  <unicode hex="006A"/>
  <outline>
    <contour>
      <point x="183" y="588"/>
      <point x="209" y="621"/>
      <point x="219" y="648" type="curve"/>
      <point x="204" y="668"/>
      <point x="172" y="697"/>
      <point x="144" y="708" type="curve"/>
      <point x="122" y="694"/>
      <point x="97" y="662"/>
      <point x="83" y="632" type="curve"/>
      <point x="99" y="609"/>
      <point x="135" y="582"/>
      <point x="160" y="572" type="curve"/>
    </contour>
    <contour>
      <point x="160" y="484" type="line"/>
      <point x="111" y="447" type="line"/>
      <point x="111" y="-11" type="line" smooth="yes"/>
      <point x="111" y="-94"/>
      <point x="91" y="-136"/>
      <point x="5" y="-165" type="curve"/>
      <point x="18" y="-210" type="line"/>
      <point x="159" y="-176"/>
      <point x="200" y="-103"/>
      <point x="200" y="-61" type="curve" smooth="yes"/>
      <point x="200" y="449" type="line"/>
    </contour>
    <contour>
      <point x="129" y="413" type="line"/>
      <point x="173" y="459" type="line"/>
      <point x="160" y="484" type="line"/>
      <point x="118" y="483"/>
      <point x="64" y="471"/>
      <point x="24" y="453" type="curve"/>
      <point x="36" y="406" type="line"/>
    </contour>
    <contour>
      <point x="154" y="500" type="move" name="top"/>
    </contour>
  </outline>
</glyph>
<glyph name="k" format="1">
  <advance width="567"/>
  <unicode hex="006B"/>
  <outline>
    <contour>
      <point x="128" y="664" type="line"/>
      <point x="172" y="710" type="line"/>
      <point x="159" y="735" type="line"/>
      <point x="117" y="734"/>
      <point x="63" y="722"/>
      <point x="23" y="704" type="curve"/>
      <point x="35" y="657" type="line"/>
    </contour>
    <contour>
      <point x="110" y="0" type="line"/>
      <point x="199" y="0" type="line"/>
      <point x="199" y="700" type="line"/>
      <point x="159" y="735" type="line"/>
      <point x="110" y="698" type="line"/>
    </contour>
    <contour>
      <point x="120" y="0" type="line"/>
      <point x="134" y="67" type="line"/>
      <point x="109" y="60"/>
      <point x="60" y="45"/>
      <point x="36" y="33" type="curve"/>
      <point x="41" y="0" type="line"/>
    </contour>
    <contour>
      <point x="248" y="0" type="line"/>
      <point x="254" y="48" type="line"/>
      <point x="231" y="58"/>
      <point x="190" y="64"/>
      <point x="156" y="67" type="curve"/>
      <point x="155" y="0" type="line"/>
    </contour>
    <contour>
      <point x="335" y="407" type="line"/>
      <point x="438" y="425" type="line"/>
      <point x="469" y="450" type="line"/>
      <point x="468" y="484" type="line"/>
      <point x="427" y="483"/>
      <point x="362" y="472"/>
      <point x="323" y="454" type="curve"/>
    </contour>
    <contour>
      <point x="468" y="484" type="line"/>
      <point x="422" y="448" type="line"/>
      <point x="275" y="276" type="line"/>
      <point x="129" y="195" type="line"/>
      <point x="136" y="176" type="line"/>
      <point x="297" y="200" type="line"/>
      <point x="499" y="434" type="line"/>
    </contour>
    <contour>
      <point x="492" y="62"/>
      <point x="472" y="62"/>
      <point x="463" y="75" type="curve" smooth="yes"/>
      <point x="331" y="265" type="line"/>
      <point x="258" y="227" type="line"/>
      <point x="375" y="47" type="line" smooth="yes"/>
      <point x="400" y="9"/>
      <point x="416" y="-8"/>
      <point x="447" y="-15" type="curve"/>
      <point x="542" y="28" type="line"/>
      <point x="527" y="72" type="line"/>
    </contour>
    <contour>
      <point x="287" y="0" type="move" name="bottom"/>
    </contour>
  </outline>
</glyph>
<glyph name="l" format="1">
  <advance width="291"/>
  <unicode hex="006C"/>
  <outline>
    <contour>
      <point x="110" y="0" type="line"/>
      <point x="199" y="0" type="line"/>
      <point x="199" y="700" type="line"/>
      <point x="159" y="735" type="line"/>
      <point x="110" y="698" type="line"/>
    </contour>
    <contour>
      <point x="128" y="664" type="line"/>
      <point x="172" y="710" type="line"/>
      <point x="159" y="735" type="line"/>
      <point x="117" y="734"/>
      <point x="63" y="722"/>
      <point x="23" y="704" type="curve"/>
      <point x="35" y="657" type="line"/>
    </contour>
    <contour>
      <point x="265" y="0" type="line"/>
      <point x="271" y="48" type="line"/>
      <point x="248" y="58"/>
      <point x="207" y="64"/>
      <point x="173" y="67" type="curve"/>
      <point x="172" y="0" type="line"/>
    </contour>
    <contour>
      <point x="118" y="0" type="line"/>
      <point x="132" y="67" type="line"/>
      <point x="107" y="60"/>
      <point x="58" y="45"/>
      <point x="34" y="33" type="curve"/>
      <point x="39" y="0" type="line"/>
    </contour>
    <contour>
      <point x="149" y="735" type="move" name="top"/>
    </contour>
    <contour>
      <point x="158" y="0" type="move" name="bottom"/>
    </contour>
    <contour>
      <point x="274" y="468" type="move" name="topright"/>
    </contour>
  </outline>
</glyph>
<glyph name="m" format="1">
  <advance width="886"/>
  <unicode hex="006D"/>
  <outline>
    <contour>
      <point x="128" y="413" type="line"/>
      <point x="172" y="459" type="line"/>
      <point x="159" y="484" type="line"/>
      <point x="117" y="483"/>
      <point x="63" y="471"/>
      <point x="23" y="453" type="curve"/>
      <point x="35" y="406" type="line"/>
    </contour>
    <contour>
      <point x="110" y="0" type="line"/>
      <point x="199" y="0" type="line"/>
      <point x="199" y="449" type="line"/>
      <point x="159" y="484" type="line"/>
      <point x="110" y="447" type="line"/>
    </contour>
    <contour>
      <point x="408" y="0" type="line"/>
      <point x="497" y="0" type="line"/>
      <point x="497" y="300" type="line" smooth="yes"/>
      <point x="497" y="370"/>
      <point x="493" y="398"/>
      <point x="483" y="417" type="curve" smooth="yes"/>
      <point x="468" y="445"/>
      <point x="430" y="477"/>
      <point x="392" y="484" type="curve"/>
      <point x="356" y="484"/>
      <point x="263" y="435"/>
      <point x="169" y="370" type="curve"/>
      <point x="187" y="328" type="line"/>
      <point x="235" y="365"/>
      <point x="304" y="404"/>
      <point x="344" y="404" type="curve" smooth="yes"/>
      <point x="378" y="404"/>
      <point x="408" y="377"/>
      <point x="408" y="296" type="curve" smooth="yes"/>
    </contour>
    <contour>
      <point x="707" y="0" type="line"/>
      <point x="796" y="0" type="line"/>
      <point x="796" y="300" type="line" smooth="yes"/>
      <point x="796" y="370"/>
      <point x="792" y="398"/>
      <point x="782" y="417" type="curve" smooth="yes"/>
      <point x="767" y="445"/>
      <point x="729" y="477"/>
      <point x="691" y="484" type="curve"/>
      <point x="655" y="484"/>
      <point x="562" y="435"/>
      <point x="468" y="370" type="curve"/>
      <point x="486" y="328" type="line"/>
      <point x="534" y="365"/>
      <point x="603" y="404"/>
      <point x="643" y="404" type="curve" smooth="yes"/>
      <point x="677" y="404"/>
      <point x="707" y="377"/>
      <point x="707" y="296" type="curve" smooth="yes"/>
    </contour>
    <contour>
      <point x="123" y="0" type="line"/>
      <point x="137" y="67" type="line"/>
      <point x="112" y="60"/>
      <point x="63" y="45"/>
      <point x="39" y="33" type="curve"/>
      <point x="44" y="0" type="line"/>
    </contour>
    <contour>
      <point x="258" y="0" type="line"/>
      <point x="264" y="48" type="line"/>
      <point x="241" y="58"/>
      <point x="200" y="64"/>
      <point x="166" y="67" type="curve"/>
      <point x="165" y="0" type="line"/>
    </contour>
    <contour>
      <point x="435" y="0" type="line"/>
      <point x="449" y="67" type="line"/>
      <point x="424" y="60"/>
      <point x="375" y="45"/>
      <point x="351" y="33" type="curve"/>
      <point x="356" y="0" type="line"/>
    </contour>
    <contour>
      <point x="561" y="0" type="line"/>
      <point x="567" y="48" type="line"/>
      <point x="544" y="58"/>
      <point x="499" y="64"/>
      <point x="465" y="67" type="curve"/>
      <point x="464" y="0" type="line"/>
    </contour>
    <contour>
      <point x="734" y="0" type="line"/>
      <point x="748" y="67" type="line"/>
      <point x="723" y="60"/>
      <point x="674" y="45"/>
      <point x="650" y="33" type="curve"/>
      <point x="655" y="0" type="line"/>
    </contour>
    <contour>
      <point x="860" y="0" type="line"/>
      <point x="866" y="48" type="line"/>
      <point x="843" y="58"/>
      <point x="798" y="64"/>
      <point x="764" y="67" type="curve"/>
      <point x="763" y="0" type="line"/>
    </contour>
  </outline>
</glyph>
<glyph name="n" format="1">
  <advance width="598"/>
  <unicode hex="006E"/>
  <outline>
    <contour>
      <point x="128" y="413" type="line"/>
      <point x="172" y="459" type="line"/>
      <point x="159" y="484" type="line"/>
      <point x="117" y="483"/>
      <point x="63" y="471"/>
      <point x="23" y="453" type="curve"/>
      <point x="35" y="406" type="line"/>
    </contour>
    <contour>
      <point x="110" y="0" type="line"/>
      <point x="199" y="0" type="line"/>
      <point x="199" y="449" type="line"/>
      <point x="159" y="484" type="line"/>
      <point x="110" y="447" type="line"/>
    </contour>
    <contour>
      <point x="419" y="0" type="line"/>
      <point x="508" y="0" type="line"/>
      <point x="508" y="300" type="line" smooth="yes"/>
      <point x="508" y="370"/>
      <point x="504" y="396"/>
      <point x="494" y="416" type="curve" smooth="yes"/>
      <point x="476" y="450"/>
      <point x="429" y="484"/>
      <point x="399" y="484" type="curve" smooth="yes"/>
      <point x="361" y="484"/>
      <point x="261" y="427"/>
      <point x="180" y="370" type="curve"/>
      <point x="198" y="328" type="line"/>
      <point x="246" y="365"/>
      <point x="315" y="404"/>
      <point x="355" y="404" type="curve" smooth="yes"/>
      <point x="389" y="404"/>
      <point x="419" y="377"/>
      <point x="419" y="296" type="curve" smooth="yes"/>
    </contour>
    <contour>
      <point x="123" y="0" type="line"/>
      <point x="137" y="67" type="line"/>
      <point x="112" y="60"/>
      <point x="63" y="45"/>
      <point x="39" y="33" type="curve"/>
      <point x="44" y="0" type="line"/>
    </contour>
    <contour>
      <point x="258" y="0" type="line"/>
      <point x="264" y="48" type="line"/>
      <point x="241" y="58"/>
      <point x="200" y="64"/>
      <point x="166" y="67" type="curve"/>
      <point x="165" y="0" type="line"/>
    </contour>
    <contour>
      <point x="446" y="0" type="line"/>
      <point x="460" y="67" type="line"/>
      <point x="435" y="60"/>
      <point x="386" y="45"/>
      <point x="362" y="33" type="curve"/>
      <point x="367" y="0" type="line"/>
    </contour>
    <contour>
      <point x="572" y="0" type="line"/>
      <point x="578" y="48" type="line"/>
      <point x="555" y="58"/>
      <point x="510" y="64"/>
      <point x="476" y="67" type="curve"/>
      <point x="475" y="0" type="line"/>
    </contour>
    <contour>
      <point x="299" y="468" type="move" name="top"/>
    </contour>
    <contour>
      <point x="319" y="0" type="move" name="bottom"/>
    </contour>
  </outline>
</glyph>
<glyph name="o" format="1">
  <advance width="511"/>
  <unicode hex="006F"/>
  <outline>
    <contour>
      <point x="28" y="78"/>
      <point x="128" y="-20"/>
      <point x="250" y="-20" type="curve" smooth="yes"/>
      <point x="362" y="-20"/>
      <point x="481" y="63"/>
      <point x="481" y="235" type="curve" smooth="yes"/>
      <point x="481" y="394"/>
      <point x="379" y="488"/>
      <point x="260" y="488" type="curve" smooth="yes"/>
      <point x="143" y="488"/>
      <point x="28" y="398"/>
      <point x="28" y="233" type="curve" smooth="yes"/>
    </contour>
    <contour>
      <point x="183" y="11"/>
      <point x="118" y="122"/>
      <point x="118" y="239" type="curve" smooth="yes"/>
      <point x="118" y="307"/>
      <point x="140" y="372"/>
      <point x="184" y="417" type="curve"/>
      <point x="316" y="466"/>
      <point x="394" y="346"/>
      <point x="394" y="218" type="curve" smooth="yes"/>
      <point x="394" y="158"/>
      <point x="377" y="93"/>
      <point x="323" y="48" type="curve"/>
    </contour>
    <contour>
      <point x="257" y="468" type="move" name="top"/>
    </contour>
  </outline>
</glyph>
<glyph name="p" format="1">
  <advance width="568"/>
  <unicode hex="0070"/>
  <outline>
    <contour>
      <point x="109" y="-204" type="line"/>
      <point x="198" y="-204" type="line"/>
      <point x="198" y="449" type="line"/>
      <point x="159" y="484" type="line"/>
      <point x="109" y="447" type="line"/>
    </contour>
    <contour>
      <point x="127" y="-204" type="line"/>
      <point x="141" y="-137" type="line"/>
      <point x="116" y="-144"/>
      <point x="67" y="-159"/>
      <point x="43" y="-171" type="curve"/>
      <point x="48" y="-204" type="line"/>
    </contour>
    <contour>
      <point x="274" y="-204" type="line"/>
      <point x="280" y="-156" type="line"/>
      <point x="257" y="-146"/>
      <point x="216" y="-140"/>
      <point x="182" y="-137" type="curve"/>
      <point x="181" y="-204" type="line"/>
    </contour>
    <contour>
      <point x="165" y="336" type="line"/>
      <point x="216" y="372"/>
      <point x="268" y="406"/>
      <point x="316" y="406" type="curve" smooth="yes"/>
      <point x="390" y="406"/>
      <point x="439" y="320"/>
      <point x="439" y="230" type="curve" smooth="yes"/>
      <point x="439" y="158"/>
      <point x="408" y="83"/>
      <point x="354" y="50" type="curve"/>
      <point x="263" y="36"/>
      <point x="198" y="73"/>
      <point x="173" y="102" type="curve"/>
      <point x="128" y="13" type="line"/>
      <point x="180" y="-8"/>
      <point x="228" y="-19"/>
      <point x="275" y="-19" type="curve" smooth="yes"/>
      <point x="426" y="-19"/>
      <point x="531" y="96"/>
      <point x="531" y="250" type="curve" smooth="yes"/>
      <point x="531" y="390"/>
      <point x="444" y="504"/>
      <point x="311" y="484" type="curve"/>
      <point x="156" y="383" type="line"/>
    </contour>
    <contour>
      <point x="128" y="413" type="line"/>
      <point x="172" y="459" type="line"/>
      <point x="159" y="484" type="line"/>
      <point x="117" y="483"/>
      <point x="63" y="471"/>
      <point x="23" y="453" type="curve"/>
      <point x="35" y="406" type="line"/>
    </contour>
  </outline>
</glyph>
<glyph name="q" format="1">
  <advance width="522"/>
  <unicode hex="0071"/>
  <outline>
    <contour>
      <point x="409" y="136" type="line"/>
      <point x="347" y="87"/>
      <point x="294" y="67"/>
      <point x="252" y="67" type="curve" smooth="yes"/>
      <point x="169" y="67"/>
      <point x="119" y="143"/>
      <point x="119" y="239" type="curve" smooth="yes"/>
      <point x="119" y="303"/>
      <point x="141" y="373"/>
      <point x="187" y="424" type="curve"/>
      <point x="273" y="443"/>
      <point x="357" y="395"/>
      <point x="390" y="344" type="curve"/>
      <point x="433" y="417" type="line"/>
      <point x="411" y="455"/>
      <point x="355" y="490"/>
      <point x="279" y="490" type="curve" smooth="yes"/>
      <point x="146" y="490"/>
      <point x="28" y="383"/>
      <point x="28" y="228" type="curve" smooth="yes"/>
      <point x="28" y="95"/>
      <point x="116" y="-17"/>
      <point x="251" y="-15" type="curve"/>
      <point x="406" y="89" type="line"/>
    </contour>
    <contour>
      <point x="495" y="420" type="line"/>
      <point x="478" y="468" type="line"/>
      <point x="368" y="450" type="line"/>
      <point x="356" y="415" type="line"/>
      <point x="356" y="-204" type="line"/>
      <point x="445" y="-204" type="line"/>
      <point x="445" y="388" type="line"/>
    </contour>
    <contour>
      <point x="360" y="-204" type="line"/>
      <point x="360" y="-137" type="line"/>
      <point x="335" y="-144"/>
      <point x="286" y="-159"/>
      <point x="262" y="-171" type="curve"/>
      <point x="267" y="-204" type="line"/>
    </contour>
    <contour>
      <point x="496" y="-204" type="line"/>
      <point x="502" y="-156" type="line"/>
      <point x="479" y="-146"/>
      <point x="438" y="-140"/>
      <point x="404" y="-137" type="curve"/>
      <point x="403" y="-204" type="line"/>
    </contour>
  </outline>
</glyph>
<glyph name="r" format="1">
  <advance width="440"/>
  <unicode hex="0072"/>
  <outline>
    <contour>
      <point x="128" y="413" type="line"/>
      <point x="172" y="459" type="line"/>
      <point x="159" y="484" type="line"/>
      <point x="117" y="483"/>
      <point x="63" y="471"/>
      <point x="23" y="453" type="curve"/>
      <point x="35" y="406" type="line"/>
    </contour>
    <contour>
      <point x="110" y="0" type="line"/>
      <point x="199" y="0" type="line"/>
      <point x="199" y="449" type="line"/>
      <point x="159" y="484" type="line"/>
      <point x="110" y="447" type="line"/>
    </contour>
    <contour>
      <point x="121" y="0" type="line"/>
      <point x="135" y="67" type="line"/>
      <point x="110" y="60"/>
      <point x="61" y="45"/>
      <point x="37" y="33" type="curve"/>
      <point x="42" y="0" type="line"/>
    </contour>
    <contour>
      <point x="296" y="0" type="line"/>
      <point x="302" y="48" type="line"/>
      <point x="279" y="58"/>
      <point x="218" y="66"/>
      <point x="184" y="67" type="curve"/>
      <point x="183" y="0" type="line"/>
    </contour>
    <contour>
      <point x="150" y="306" type="line"/>
      <point x="170" y="248" type="line"/>
      <point x="212" y="324"/>
      <point x="281" y="394"/>
      <point x="341" y="413" type="curve"/>
      <point x="347" y="315" type="line"/>
      <point x="401" y="311" type="line"/>
      <point x="414" y="362"/>
      <point x="422" y="412"/>
      <point x="419" y="463" type="curve"/>
      <point x="387" y="483"/>
      <point x="349" y="485"/>
      <point x="304" y="476" type="curve" smooth="yes"/>
    </contour>
    <contour>
      <point x="220" y="468" type="move" name="top"/>
    </contour>
    <contour>
      <point x="177" y="0" type="move" name="bottom"/>
    </contour>
  </outline>
</glyph>
<glyph name="s" format="1">
  <advance width="434"/>
  <unicode hex="0073"/>
  <outline>
    <contour>
      <point x="35" y="32" type="line"/>
      <point x="100" y="-4"/>
      <point x="167" y="-20"/>
      <point x="216" y="-20" type="curve" smooth="yes"/>
      <point x="311" y="-20"/>
      <point x="384" y="39"/>
      <point x="384" y="125" type="curve" smooth="yes"/>
      <point x="384" y="285"/>
      <point x="129" y="265"/>
      <point x="129" y="368" type="curve" smooth="yes"/>
      <point x="129" y="389"/>
      <point x="140" y="411"/>
      <point x="165" y="427" type="curve"/>
      <point x="218" y="432"/>
      <point x="291" y="416"/>
      <point x="336" y="378" type="curve"/>
      <point x="367" y="458" type="line"/>
      <point x="330" y="477"/>
      <point x="285" y="488"/>
      <point x="239" y="488" type="curve" smooth="yes"/>
      <point x="141" y="488"/>
      <point x="49" y="439"/>
      <point x="49" y="345" type="curve" smooth="yes"/>
      <point x="49" y="190"/>
      <point x="298" y="216"/>
      <point x="298" y="101" type="curve" smooth="yes"/>
      <point x="298" y="76"/>
      <point x="287" y="57"/>
      <point x="270" y="42" type="curve"/>
      <point x="195" y="52"/>
      <point x="122" y="88"/>
      <point x="72" y="120" type="curve"/>
    </contour>
    <contour>
      <point x="350" y="329" type="line"/>
      <point x="365" y="370"/>
      <point x="369" y="415"/>
      <point x="367" y="458" type="curve"/>
      <point x="279" y="418" type="line"/>
      <point x="293" y="333" type="line"/>
    </contour>
    <contour>
      <point x="216" y="468" type="move" name="top"/>
    </contour>
    <contour>
      <point x="207" y="0" type="move" name="bottom"/>
    </contour>
  </outline>
</glyph>
<glyph name="t" format="1">
  <advance width="358"/>
  <unicode hex="0074"/>
  <outline>
    <contour>
      <point x="321" y="89" type="line"/>
      <point x="291" y="80"/>
      <point x="259" y="68"/>
      <point x="234" y="68" type="curve" smooth="yes"/>
      <point x="210" y="68"/>
      <point x="193" y="80"/>
      <point x="193" y="122" type="curve" smooth="yes"/>
      <point x="193" y="447" type="line"/>
      <point x="193" y="589" type="line"/>
      <point x="146" y="589" type="line"/>
      <point x="103" y="455" type="line"/>
      <point x="103" y="72" type="line" smooth="yes"/>
      <point x="103" y="30"/>
      <point x="179" y="-23"/>
      <point x="205" y="-15" type="curve"/>
      <point x="335" y="45" type="line"/>
    </contour>
    <contour>
      <point x="127" y="394" type="line"/>
      <point x="171" y="444" type="line"/>
      <point x="148" y="469" type="line"/>
      <point x="113" y="465"/>
      <point x="75" y="458"/>
      <point x="35" y="440" type="curve"/>
      <point x="42" y="392" type="line"/>
    </contour>
    <contour>
      <point x="122" y="391" type="line"/>
      <point x="290" y="391" type="line"/>
      <point x="337" y="439" type="line"/>
      <point x="333" y="468" type="line"/>
      <point x="122" y="468" type="line"/>
    </contour>
    <contour>
      <point x="184" y="234" type="move" name="center"/>
    </contour>
    <contour>
      <point x="204" y="0" type="move" name="bottom"/>
    </contour>
    <contour>
      <point x="338" y="468" type="move" name="topright"/>
    </contour>
  </outline>
</glyph>
<glyph name="u" format="1">
  <advance width="578"/>
  <unicode hex="0075"/>
  <outline>
    <contour>
      <point x="115" y="413" type="line"/>
      <point x="159" y="459" type="line"/>
      <point x="146" y="484" type="line"/>
      <point x="104" y="483"/>
      <point x="50" y="471"/>
      <point x="10" y="453" type="curve"/>
      <point x="22" y="406" type="line"/>
    </contour>
    <contour>
      <point x="411" y="126" type="line"/>
      <point x="360" y="93"/>
      <point x="300" y="62"/>
      <point x="252" y="62" type="curve" smooth="yes"/>
      <point x="207" y="62"/>
      <point x="186" y="90"/>
      <point x="186" y="160" type="curve" smooth="yes"/>
      <point x="186" y="449" type="line"/>
      <point x="146" y="484" type="line"/>
      <point x="97" y="447" type="line"/>
      <point x="97" y="166" type="line" smooth="yes"/>
      <point x="97" y="97"/>
      <point x="101" y="70"/>
      <point x="114" y="50" type="curve" smooth="yes"/>
      <point x="130" y="25"/>
      <point x="164" y="-6"/>
      <point x="202" y="-15" type="curve"/>
      <point x="248" y="-15"/>
      <point x="355" y="25"/>
      <point x="429" y="83" type="curve"/>
    </contour>
    <contour>
      <point x="410" y="413" type="line"/>
      <point x="454" y="459" type="line"/>
      <point x="441" y="484" type="line"/>
      <point x="399" y="483"/>
      <point x="345" y="471"/>
      <point x="305" y="453" type="curve"/>
      <point x="317" y="406" type="line"/>
    </contour>
    <contour>
      <point x="539" y="71"/>
      <point x="521" y="66"/>
      <point x="507" y="66" type="curve" smooth="yes"/>
      <point x="492" y="66"/>
      <point x="481" y="71"/>
      <point x="481" y="86" type="curve"/>
      <point x="481" y="449" type="line"/>
      <point x="441" y="484" type="line"/>
      <point x="392" y="447" type="line"/>
      <point x="392" y="82" type="line"/>
      <point x="392" y="68" type="line"/>
      <point x="401" y="29"/>
      <point x="445" y="-13"/>
      <point x="467" y="-15" type="curve"/>
      <point x="568" y="31" type="line"/>
      <point x="553" y="75" type="line"/>
    </contour>
    <contour>
      <point x="517" y="12" type="move" name="ogonek"/>
    </contour>
    <contour>
      <point x="266" y="468" type="move" name="top"/>
    </contour>
  </outline>
</glyph>
<glyph name="v" format="1">
  <advance width="529"/>
  <unicode hex="0076"/>
  <outline>
    <contour>
      <point x="4" y="419" type="line"/>
      <point x="125" y="412" type="line"/>
      <point x="144" y="468" type="line"/>
      <point x="5" y="468" type="line"/>
    </contour>
    <contour>
      <point x="126" y="468" type="line"/>
      <point x="112" y="397" type="line"/>
      <point x="146" y="407"/>
      <point x="179" y="418"/>
      <point x="211" y="432" type="curve"/>
      <point x="205" y="468" type="line"/>
    </contour>
    <contour>
      <point x="242" y="-8"/>
      <point x="288" y="-8"/>
      <point x="319" y="3" type="curve"/>
      <point x="379" y="151"/>
      <point x="435" y="320"/>
      <point x="486" y="468" type="curve"/>
      <point x="389" y="468" type="line"/>
      <point x="358" y="345"/>
      <point x="316" y="189"/>
      <point x="274" y="66" type="curve"/>
      <point x="250" y="66" type="line"/>
      <point x="236" y="173" type="line"/>
      <point x="144" y="468" type="line"/>
      <point x="42" y="467" type="line"/>
      <point x="203" y="-2" type="line"/>
    </contour>
    <contour>
      <point x="443" y="412" type="line"/>
      <point x="462" y="468" type="line"/>
      <point x="323" y="468" type="line"/>
      <point x="322" y="419" type="line"/>
    </contour>
    <contour>
      <point x="444" y="468" type="line"/>
      <point x="430" y="397" type="line"/>
      <point x="464" y="407"/>
      <point x="497" y="418"/>
      <point x="529" y="432" type="curve"/>
      <point x="523" y="468" type="line"/>
    </contour>
  </outline>
</glyph>
<glyph name="w" format="1">
  <advance width="762"/>
  <unicode hex="0077"/>
  <outline>
    <contour>
      <point x="4" y="419" type="line"/>
      <point x="125" y="412" type="line"/>
      <point x="144" y="468" type="line"/>
      <point x="5" y="468" type="line"/>
    </contour>
    <contour>
      <point x="126" y="468" type="line"/>
      <point x="112" y="397" type="line"/>
      <point x="146" y="407"/>
      <point x="179" y="418"/>
      <point x="211" y="432" type="curve"/>
      <point x="205" y="468" type="line"/>
    </contour>
    <contour>
      <point x="625" y="153"/>
      <point x="678" y="321"/>
      <point x="717" y="468" type="curve"/>
      <point x="629" y="468" type="line"/>
      <point x="605" y="349"/>
      <point x="560" y="178"/>
      <point x="516" y="59" type="curve"/>
      <point x="499" y="59" type="line"/>
      <point x="480" y="171" type="line"/>
      <point x="405" y="461" type="line"/>
      <point x="312" y="438" type="line"/>
      <point x="448" y="-2" type="line"/>
      <point x="484" y="-10"/>
      <point x="534" y="-6"/>
      <point x="568" y="6" type="curve"/>
    </contour>
    <contour>
      <point x="673" y="412" type="line"/>
      <point x="692" y="468" type="line"/>
      <point x="553" y="468" type="line"/>
      <point x="552" y="419" type="line"/>
    </contour>
    <contour>
      <point x="677" y="468" type="line"/>
      <point x="663" y="397" type="line"/>
      <point x="697" y="407"/>
      <point x="730" y="418"/>
      <point x="762" y="432" type="curve"/>
      <point x="756" y="468" type="line"/>
    </contour>
    <contour>
      <point x="360" y="359" type="line"/>
      <point x="248" y="59" type="line"/>
      <point x="228" y="59" type="line"/>
      <point x="217" y="171" type="line"/>
      <point x="144" y="468" type="line"/>
      <point x="44" y="467" type="line"/>
      <point x="178" y="-2" type="line"/>
      <point x="216" y="-8"/>
      <point x="262" y="-6"/>
      <point x="294" y="6" type="curve"/>
      <point x="364" y="176" type="line"/>
      <point x="382" y="275" type="line"/>
    </contour>
    <contour>
      <point x="379" y="468" type="move" name="top"/>
    </contour>
  </outline>
</glyph>
<glyph name="x" format="1">
  <advance width="570"/>
  <unicode hex="0078"/>
  <outline>
    <contour>
      <point x="51" y="419" type="line"/>
      <point x="164" y="412" type="line"/>
      <point x="183" y="468" type="line"/>
      <point x="52" y="468" type="line"/>
    </contour>
    <contour>
      <point x="188" y="407"/>
      <point x="221" y="418"/>
      <point x="253" y="432" type="curve"/>
      <point x="247" y="468" type="line"/>
      <point x="168" y="468" type="line"/>
      <point x="154" y="397" type="line" smooth="yes"/>
    </contour>
    <contour>
      <point x="459" y="412" type="line"/>
      <point x="478" y="468" type="line"/>
      <point x="339" y="468" type="line"/>
      <point x="338" y="419" type="line"/>
    </contour>
    <contour>
      <point x="442" y="468" type="line"/>
      <point x="428" y="397" type="line"/>
      <point x="462" y="407"/>
      <point x="495" y="418"/>
      <point x="527" y="432" type="curve"/>
      <point x="521" y="468" type="line"/>
    </contour>
    <contour>
      <point x="429" y="0" type="line"/>
      <point x="527" y="0" type="line"/>
      <point x="183" y="468" type="line"/>
      <point x="100" y="439" type="line"/>
    </contour>
    <contour>
      <point x="474" y="418" type="line"/>
      <point x="486" y="468" type="line"/>
      <point x="429" y="468" type="line"/>
      <point x="280" y="264" type="line"/>
      <point x="321" y="225" type="line"/>
    </contour>
    <contour>
      <point x="41" y="0" type="line"/>
      <point x="119" y="0" type="line"/>
      <point x="134" y="0" type="line"/>
      <point x="287" y="208" type="line"/>
      <point x="246" y="254" type="line"/>
    </contour>
    <contour>
      <point x="109" y="0" type="line"/>
      <point x="123" y="67" type="line"/>
      <point x="98" y="60"/>
      <point x="49" y="45"/>
      <point x="25" y="33" type="curve"/>
      <point x="30" y="0" type="line"/>
    </contour>
    <contour>
      <point x="233" y="0" type="line"/>
      <point x="239" y="48" type="line"/>
      <point x="216" y="58"/>
      <point x="175" y="64"/>
      <point x="141" y="67" type="curve"/>
      <point x="130" y="0" type="line"/>
    </contour>
    <contour>
      <point x="464" y="0" type="line"/>
      <point x="428" y="67" type="line"/>
      <point x="403" y="60"/>
      <point x="354" y="45"/>
      <point x="330" y="33" type="curve"/>
      <point x="335" y="0" type="line"/>
    </contour>
    <contour>
      <point x="539" y="0" type="line"/>
      <point x="545" y="48" type="line"/>
      <point x="522" y="58"/>
      <point x="481" y="64"/>
      <point x="447" y="67" type="curve"/>
      <point x="436" y="0" type="line"/>
    </contour>
  </outline>
</glyph>
<glyph name="y" format="1">
  <advance width="527"/>
  <unicode hex="0079"/>
  <outline>
    <contour>
      <point x="4" y="419" type="line"/>
      <point x="125" y="412" type="line"/>
      <point x="144" y="468" type="line"/>
      <point x="5" y="468" type="line"/>
    </contour>
    <contour>
      <point x="136" y="468" type="line"/>
      <point x="122" y="397" type="line"/>
      <point x="156" y="407"/>
      <point x="189" y="418"/>
      <point x="221" y="432" type="curve"/>
      <point x="215" y="468" type="line"/>
    </contour>
    <contour>
      <point x="316" y="419" type="line"/>
      <point x="437" y="412" type="line"/>
      <point x="456" y="468" type="line"/>
      <point x="317" y="468" type="line"/>
    </contour>
    <contour>
      <point x="442" y="468" type="line"/>
      <point x="428" y="397" type="line"/>
      <point x="462" y="407"/>
      <point x="495" y="418"/>
      <point x="527" y="432" type="curve"/>
      <point x="521" y="468" type="line"/>
    </contour>
    <contour>
      <point x="235" y="-146"/>
      <point x="299" y="-53"/>
      <point x="346" y="56" type="curve"/>
      <point x="390" y="176"/>
      <point x="442" y="336"/>
      <point x="481" y="468" type="curve"/>
      <point x="387" y="468" type="line"/>
      <point x="363" y="346"/>
      <point x="317" y="181"/>
      <point x="275" y="67" type="curve"/>
      <point x="256" y="67" type="line"/>
      <point x="239" y="182" type="line"/>
      <point x="143" y="468" type="line"/>
      <point x="44" y="457" type="line"/>
      <point x="200" y="27" type="line"/>
      <point x="214" y="14"/>
      <point x="236" y="2"/>
      <point x="253" y="-4" type="curve"/>
      <point x="201" y="-62"/>
      <point x="138" y="-96"/>
      <point x="67" y="-126" type="curve"/>
      <point x="117" y="-217" type="line"/>
    </contour>
    <contour>
      <point x="269" y="468" type="move" name="top"/>
    </contour>
  </outline>
</glyph>
<glyph name="z" format="1">
  <advance width="487"/>
  <unicode hex="007A"/>
  <outline>
    <contour>
      <point x="116" y="301" type="line"/>
      <point x="132" y="420" type="line"/>
      <point x="60" y="468" type="line"/>
      <point x="55" y="418"/>
      <point x="58" y="352"/>
      <point x="69" y="302" type="curve"/>
    </contour>
    <contour>
      <point x="64" y="400" type="line"/>
      <point x="343" y="409" type="line"/>
      <point x="386" y="468" type="line"/>
      <point x="60" y="468" type="line"/>
    </contour>
    <contour>
      <point x="419" y="491" type="line"/>
      <point x="366" y="455" type="line"/>
      <point x="338" y="447" type="line"/>
      <point x="35" y="21" type="line"/>
      <point x="79" y="-16" type="line"/>
      <point x="133" y="34" type="line"/>
      <point x="167" y="64" type="line"/>
      <point x="453" y="461" type="line"/>
    </contour>
    <contour>
      <point x="401" y="149" type="line"/>
      <point x="380" y="73" type="line"/>
      <point x="125" y="84" type="line"/>
      <point x="86" y="22" type="line"/>
      <point x="429" y="-8" type="line"/>
      <point x="440" y="29"/>
      <point x="450" y="83"/>
      <point x="452" y="142" type="curve"/>
    </contour>
    <contour>
      <point x="250" y="468" type="move" name="top"/>
    </contour>
  </outline>
</glyph>
<glyph name="dvI" format="1">
  <advance width="548"/>
  <unicode hex="0907"/>
  <outline>
    <contour>
      <point x="183" y="24" type="line"/>
      <point x="326" y="-200" type="line"/>
      <point x="402" y="-142" type="line"/>
      <point x="226" y="32" type="line"/>
    </contour>
    <contour>
      <point x="569" y="538" type="line"/>
      <point x="578" y="558" type="line"/>
      <point x="548" y="608" type="line"/>
      <point x="-21" y="608" type="line"/>
      <point x="-30" y="588" type="line"/>
      <point x="0" y="538" type="line"/>
    </contour>
    <contour>
      <point x="370" y="394" type="line"/>
      <point x="448" y="383" type="line"/>
      <point x="448" y="500" type="line"/>
      <point x="390" y="551" type="line"/>
      <point x="370" y="562" type="line"/>
    </contour>
    <contour>
      <point x="101" y="42" type="line"/>
      <point x="154" y="1"/>
      <point x="221" y="-18"/>
      <point x="285" y="-18" type="curve" smooth="yes"/>
      <point x="400" y="-18"/>
      <point x="506" y="43"/>
      <point x="506" y="145" type="curve" smooth="yes"/>
      <point x="506" y="215"/>
      <point x="450" y="275"/>
      <point x="378" y="303" type="curve"/>
      <point x="175" y="252" type="line"/>
      <point x="150" y="274"/>
      <point x="134" y="293"/>
      <point x="134" y="318" type="curve" smooth="yes"/>
      <point x="134" y="360"/>
      <point x="180" y="383"/>
      <point x="240" y="383" type="curve" smooth="yes"/>
      <point x="448" y="383" type="line"/>
      <point x="374" y="464" type="line"/>
      <point x="214" y="464" type="line" smooth="yes"/>
      <point x="109" y="464"/>
      <point x="63" y="410"/>
      <point x="63" y="356" type="curve" smooth="yes"/>
      <point x="63" y="283"/>
      <point x="148" y="189"/>
      <point x="249" y="174" type="curve"/>
      <point x="417" y="219" type="line"/>
      <point x="463" y="129"/>
      <point x="368" y="29"/>
      <point x="198" y="42" type="curve"/>
      <point x="254" y="18" type="line"/>
      <point x="171" y="153" type="line"/>
      <point x="128" y="153" type="line"/>
    </contour>
  </outline>
</glyph>
<glyph name="dvU" format="1">
  <advance width="532"/>
  <unicode hex="0909"/>
  <outline>
    <contour>
      <point x="297" y="546" type="line"/>
      <point x="336" y="526"/>
      <point x="353" y="493"/>
      <point x="353" y="459" type="curve" smooth="yes"/>
      <point x="353" y="407"/>
      <point x="314" y="365"/>
      <point x="223" y="343" type="curve"/>
      <point x="301" y="299" type="line"/>
      <point x="400" y="333"/>
      <point x="425" y="386"/>
      <point x="425" y="435" type="curve" smooth="yes"/>
      <point x="425" y="497"/>
      <point x="384" y="542"/>
      <point x="338" y="565" type="curve"/>
    </contour>
    <contour>
      <point x="553" y="538" type="line"/>
      <point x="562" y="558" type="line"/>
      <point x="532" y="608" type="line"/>
      <point x="-21" y="608" type="line"/>
      <point x="-30" y="588" type="line"/>
      <point x="0" y="538" type="line"/>
    </contour>
    <contour>
      <point x="15" y="242" type="line"/>
      <point x="116" y="30"/>
      <point x="225" y="-16"/>
      <point x="308" y="-16" type="curve" smooth="yes"/>
      <point x="413" y="-16"/>
      <point x="486" y="57"/>
      <point x="486" y="150" type="curve" smooth="yes"/>
      <point x="486" y="231"/>
      <point x="430" y="314"/>
      <point x="334" y="350" type="curve"/>
      <point x="309" y="356" type="line"/>
      <point x="260" y="363"/>
      <point x="211" y="357"/>
      <point x="167" y="322" type="curve"/>
      <point x="211" y="242" type="line"/>
      <point x="357" y="317" type="line"/>
      <point x="277" y="301" type="line"/>
      <point x="367" y="300"/>
      <point x="411" y="232"/>
      <point x="411" y="174" type="curve" smooth="yes"/>
      <point x="411" y="106"/>
      <point x="353" y="65"/>
      <point x="286" y="65" type="curve" smooth="yes"/>
      <point x="192" y="65"/>
      <point x="119" y="146"/>
      <point x="61" y="270" type="curve"/>
    </contour>
  </outline>
</glyph>
<glyph name="dvUu" format="1">
  <advance width="735"/>
  <unicode hex="090A"/>
  <outline>
    <contour>
      <point x="756" y="538" type="line"/>
      <point x="765" y="558" type="line"/>
      <point x="735" y="608" type="line"/>
      <point x="169" y="608" type="line"/>
      <point x="160" y="588" type="line"/>
      <point x="190" y="538" type="line"/>
    </contour>
    <contour>
      <point x="605" y="46" type="line"/>
      <point x="676" y="99"/>
      <point x="721" y="154"/>
      <point x="721" y="224" type="curve" smooth="yes"/>
      <point x="721" y="309"/>
      <point x="655" y="379"/>
      <point x="576" y="379" type="curve" smooth="yes"/>
      <point x="518" y="379"/>
      <point x="465" y="342"/>
      <point x="401" y="272" type="curve"/>
      <point x="451" y="209" type="line"/>
      <point x="509" y="272"/>
      <point x="561" y="314"/>
      <point x="609" y="314" type="curve" smooth="yes"/>
      <point x="647" y="314"/>
      <point x="660" y="288"/>
      <point x="660" y="263" type="curve" smooth="yes"/>
      <point x="660" y="212"/>
      <point x="603" y="154"/>
      <point x="547" y="111" type="curve"/>
    </contour>
    <component base="dvU"/>
  </outline>
</glyph>
<glyph name="dvKa" format="1">
  <advance width="725"/>
  <unicode hex="0915"/>
  <outline>
    <contour>
      <point x="218" y="436" type="line"/>
      <point x="130" y="463"/>
      <point x="25" y="400"/>
      <point x="25" y="297" type="curve" smooth="yes"/>
      <point x="25" y="188"/>
      <point x="141" y="103"/>
      <point x="230" y="103" type="curve" smooth="yes"/>
      <point x="288" y="103"/>
      <point x="335" y="139"/>
      <point x="367" y="190" type="curve"/>
      <point x="342" y="276" type="line"/>
      <point x="301" y="192"/>
      <point x="198" y="143"/>
      <point x="124" y="187" type="curve"/>
      <point x="69" y="267"/>
      <point x="116" y="369"/>
      <point x="217" y="369" type="curve" smooth="yes"/>
      <point x="265" y="369"/>
      <point x="308" y="346"/>
      <point x="351" y="319" type="curve"/>
      <point x="354" y="371" type="line"/>
    </contour>
    <contour>
      <point x="746" y="538" type="line"/>
      <point x="755" y="558" type="line"/>
      <point x="725" y="608" type="line"/>
      <point x="-21" y="608" type="line"/>
      <point x="-30" y="588" type="line"/>
      <point x="0" y="538" type="line"/>
    </contour>
    <contour>
      <point x="322" y="5" type="line"/>
      <point x="381" y="-33" type="line"/>
      <point x="405" y="-26" type="line"/>
      <point x="405" y="500" type="line"/>
      <point x="347" y="551" type="line"/>
      <point x="322" y="562" type="line"/>
    </contour>
    <contour>
      <point x="390" y="206" type="line"/>
      <point x="456" y="288"/>
      <point x="505" y="335"/>
      <point x="557" y="335" type="curve" smooth="yes"/>
      <point x="599" y="335"/>
      <point x="617" y="303"/>
      <point x="617" y="271" type="curve" smooth="yes"/>
      <point x="617" y="216"/>
      <point x="562" y="157"/>
      <point x="478" y="89" type="curve"/>
      <point x="539" y="20" type="line"/>
      <point x="647" y="100"/>
      <point x="681" y="167"/>
      <point x="681" y="231" type="curve" smooth="yes"/>
      <point x="681" y="323"/>
      <point x="610" y="409"/>
      <point x="531" y="409" type="curve" smooth="yes"/>
      <point x="467" y="409"/>
      <point x="406" y="351"/>
      <point x="368" y="294" type="curve"/>
    </contour>
  </outline>
</glyph>
<glyph name="dvCa" format="1">
  <advance width="635"/>
  <unicode hex="091A"/>
  <outline>
    <contour>
      <point x="190" y="400" type="line"/>
      <point x="148" y="375"/>
      <point x="125" y="329"/>
      <point x="125" y="285" type="curve" smooth="yes"/>
      <point x="125" y="230"/>
      <point x="161" y="185"/>
      <point x="204" y="152" type="curve" smooth="yes"/>
      <point x="240" y="124"/>
      <point x="292" y="98"/>
      <point x="347" y="98" type="curve" smooth="yes"/>
      <point x="407" y="98"/>
      <point x="463" y="129"/>
      <point x="508" y="193" type="curve"/>
      <point x="484" y="295" type="line"/>
      <point x="441" y="185"/>
      <point x="304" y="147"/>
      <point x="234" y="177" type="curve"/>
      <point x="187" y="227"/>
      <point x="201" y="320"/>
      <point x="268" y="356" type="curve"/>
    </contour>
    <contour>
      <point x="462" y="5" type="line"/>
      <point x="521" y="-33" type="line"/>
      <point x="545" y="-26" type="line"/>
      <point x="545" y="500" type="line"/>
      <point x="487" y="551" type="line"/>
      <point x="462" y="562" type="line"/>
    </contour>
    <contour>
      <point x="656" y="538" type="line"/>
      <point x="665" y="558" type="line"/>
      <point x="635" y="608" type="line"/>
      <point x="-21" y="608" type="line"/>
      <point x="-30" y="588" type="line"/>
      <point x="0" y="538" type="line"/>
    </contour>
    <contour>
      <point x="156" y="350" type="line"/>
      <point x="180" y="346" type="line"/>
      <point x="397" y="346" type="line"/>
      <point x="406" y="366" type="line"/>
      <point x="376" y="416" type="line"/>
      <point x="27" y="416" type="line"/>
      <point x="18" y="396" type="line"/>
      <point x="46" y="350" type="line"/>
    </contour>
  </outline>
</glyph>
<glyph name="dvJa" format="1">
  <advance width="667"/>
  <unicode hex="091C"/>
  <outline>
    <contour>
      <point x="13" y="390" type="line"/>
      <point x="68" y="193"/>
      <point x="154" y="51"/>
      <point x="273" y="51" type="curve" smooth="yes"/>
      <point x="342" y="51"/>
      <point x="408" y="99"/>
      <point x="408" y="181" type="curve" smooth="yes"/>
      <point x="408" y="267"/>
      <point x="334" y="368"/>
      <point x="202" y="386" type="curve"/>
      <point x="193" y="386" type="line"/>
      <point x="193" y="365" type="line"/>
      <point x="284" y="324" type="line"/>
      <point x="365" y="241"/>
      <point x="336" y="137"/>
      <point x="251" y="137" type="curve" smooth="yes"/>
      <point x="165" y="137"/>
      <point x="111" y="245"/>
      <point x="63" y="406" type="curve"/>
    </contour>
    <contour>
      <point x="501" y="412" type="line"/>
      <point x="193" y="412" type="line"/>
      <point x="193" y="373" type="line"/>
      <point x="303" y="336" type="line"/>
      <point x="498" y="336" type="line"/>
    </contour>
    <contour>
      <point x="494" y="5" type="line"/>
      <point x="553" y="-33" type="line"/>
      <point x="577" y="-26" type="line"/>
      <point x="577" y="500" type="line"/>
      <point x="519" y="551" type="line"/>
      <point x="494" y="562" type="line"/>
    </contour>
    <contour>
      <point x="688" y="538" type="line"/>
      <point x="697" y="558" type="line"/>
      <point x="667" y="608" type="line"/>
      <point x="-21" y="608" type="line"/>
      <point x="-30" y="588" type="line"/>
      <point x="0" y="538" type="line"/>
    </contour>
  </outline>
</glyph>
<glyph name="dvTta" format="1">
  <advance width="541"/>
  <unicode hex="091F"/>
  <outline>
    <contour>
      <point x="446" y="159" type="line"/>
      <point x="387" y="79"/>
      <point x="275" y="46"/>
      <point x="186" y="84" type="curve"/>
      <point x="151" y="114"/>
      <point x="128" y="156"/>
      <point x="128" y="199" type="curve" smooth="yes"/>
      <point x="128" y="258"/>
      <point x="171" y="309"/>
      <point x="268" y="309" type="curve" smooth="yes"/>
      <point x="413" y="309" type="line"/>
      <point x="336" y="392" type="line"/>
      <point x="253" y="392" type="line" smooth="yes"/>
      <point x="113" y="392"/>
      <point x="48" y="322"/>
      <point x="48" y="232" type="curve" smooth="yes"/>
      <point x="48" y="90"/>
      <point x="210" y="-6"/>
      <point x="322" y="-6" type="curve" smooth="yes"/>
      <point x="389" y="-6"/>
      <point x="460" y="28"/>
      <point x="506" y="94" type="curve"/>
    </contour>
    <contour>
      <point x="330" y="351" type="line"/>
      <point x="413" y="310" type="line"/>
      <point x="413" y="500" type="line"/>
      <point x="355" y="551" type="line"/>
      <point x="330" y="562" type="line"/>
    </contour>
    <contour>
      <point x="562" y="538" type="line"/>
      <point x="571" y="558" type="line"/>
      <point x="541" y="608" type="line"/>
      <point x="-21" y="608" type="line"/>
      <point x="-30" y="588" type="line"/>
      <point x="0" y="538" type="line"/>
    </contour>
  </outline>
</glyph>
<glyph name="dvTtha" format="1">
  <advance width="578"/>
  <unicode hex="0920"/>
  <outline>
    <contour>
      <point x="382" y="321" type="line"/>
      <point x="426" y="277"/>
      <point x="446" y="233"/>
      <point x="446" y="190" type="curve" smooth="yes"/>
      <point x="446" y="116"/>
      <point x="387" y="52"/>
      <point x="294" y="52" type="curve" smooth="yes"/>
      <point x="264" y="52"/>
      <point x="232" y="59"/>
      <point x="195" y="75" type="curve"/>
      <point x="156" y="111"/>
      <point x="135" y="151"/>
      <point x="135" y="197" type="curve" smooth="yes"/>
      <point x="135" y="264"/>
      <point x="181" y="311"/>
      <point x="285" y="311" type="curve" smooth="yes"/>
      <point x="416" y="311" type="line"/>
      <point x="342" y="393" type="line"/>
      <point x="257" y="393" type="line" smooth="yes"/>
      <point x="128" y="393"/>
      <point x="53" y="327"/>
      <point x="53" y="229" type="curve" smooth="yes"/>
      <point x="53" y="90"/>
      <point x="202" y="-12"/>
      <point x="338" y="-12" type="curve" smooth="yes"/>
      <point x="446" y="-12"/>
      <point x="528" y="52"/>
      <point x="528" y="151" type="curve" smooth="yes"/>
      <point x="528" y="220"/>
      <point x="488" y="303"/>
      <point x="394" y="362" type="curve"/>
    </contour>
    <contour>
      <point x="332" y="332" type="line"/>
      <point x="415" y="321" type="line"/>
      <point x="415" y="500" type="line"/>
      <point x="357" y="551" type="line"/>
      <point x="332" y="562" type="line"/>
    </contour>
    <contour>
      <point x="599" y="538" type="line"/>
      <point x="608" y="558" type="line"/>
      <point x="578" y="608" type="line"/>
      <point x="-21" y="608" type="line"/>
      <point x="-30" y="588" type="line"/>
      <point x="0" y="538" type="line"/>
    </contour>
  </outline>
</glyph>
<glyph name="dvDda" format="1">
  <advance width="593"/>
  <unicode hex="0921"/>
  <outline>
    <contour>
      <point x="35" y="209" type="line"/>
      <point x="152" y="30"/>
      <point x="258" y="-26"/>
      <point x="357" y="-26" type="curve" smooth="yes"/>
      <point x="467" y="-26"/>
      <point x="540" y="42"/>
      <point x="540" y="125" type="curve" smooth="yes"/>
      <point x="540" y="202"/>
      <point x="477" y="280"/>
      <point x="383" y="300" type="curve"/>
      <point x="212" y="246" type="line"/>
      <point x="188" y="263"/>
      <point x="173" y="283"/>
      <point x="173" y="307" type="curve" smooth="yes"/>
      <point x="173" y="350"/>
      <point x="219" y="373"/>
      <point x="280" y="373" type="curve" smooth="yes"/>
      <point x="487" y="373" type="line"/>
      <point x="413" y="454" type="line"/>
      <point x="253" y="454" type="line" smooth="yes"/>
      <point x="148" y="454"/>
      <point x="102" y="400"/>
      <point x="102" y="346" type="curve" smooth="yes"/>
      <point x="102" y="273"/>
      <point x="187" y="179"/>
      <point x="288" y="165" type="curve"/>
      <point x="448" y="218" type="line"/>
      <point x="496" y="152"/>
      <point x="446" y="52"/>
      <point x="326" y="52" type="curve" smooth="yes"/>
      <point x="245" y="52"/>
      <point x="157" y="98"/>
      <point x="72" y="236" type="curve"/>
    </contour>
    <contour>
      <point x="409" y="384" type="line"/>
      <point x="487" y="373" type="line"/>
      <point x="487" y="500" type="line"/>
      <point x="429" y="551" type="line"/>
      <point x="409" y="562" type="line"/>
    </contour>
    <contour>
      <point x="614" y="538" type="line"/>
      <point x="623" y="558" type="line"/>
      <point x="593" y="608" type="line"/>
      <point x="-21" y="608" type="line"/>
      <point x="-30" y="588" type="line"/>
      <point x="0" y="538" type="line"/>
    </contour>
  </outline>
</glyph>
<glyph name="dvTa" format="1">
  <advance width="571"/>
  <unicode hex="0924"/>
  <outline>
    <contour>
      <point x="440" y="408" type="line"/>
      <point x="239" y="408" type="line" smooth="yes"/>
      <point x="98" y="408"/>
      <point x="43" y="336"/>
      <point x="43" y="258" type="curve" smooth="yes"/>
      <point x="43" y="167"/>
      <point x="118" y="66"/>
      <point x="227" y="-38" type="curve"/>
      <point x="264" y="-3" type="line"/>
      <point x="155" y="104"/>
      <point x="124" y="171"/>
      <point x="124" y="222" type="curve" smooth="yes"/>
      <point x="124" y="287"/>
      <point x="172" y="327"/>
      <point x="280" y="327" type="curve" smooth="yes"/>
      <point x="441" y="327" type="line"/>
    </contour>
    <contour>
      <point x="592" y="538" type="line"/>
      <point x="601" y="558" type="line"/>
      <point x="571" y="608" type="line"/>
      <point x="-21" y="608" type="line"/>
      <point x="-30" y="588" type="line"/>
      <point x="0" y="538" type="line"/>
    </contour>
    <contour>
      <point x="398" y="5" type="line"/>
      <point x="457" y="-33" type="line"/>
      <point x="481" y="-26" type="line"/>
      <point x="481" y="500" type="line"/>
      <point x="423" y="551" type="line"/>
      <point x="398" y="562" type="line"/>
    </contour>
  </outline>
</glyph>
<glyph name="dvPa" format="1">
  <advance width="555"/>
  <unicode hex="092A"/>
  <outline>
    <contour>
      <point x="576" y="538" type="line"/>
      <point x="585" y="558" type="line"/>
      <point x="555" y="608" type="line"/>
      <point x="-21" y="608" type="line"/>
      <point x="-30" y="588" type="line"/>
      <point x="0" y="538" type="line"/>
    </contour>
    <contour>
      <point x="382" y="5" type="line"/>
      <point x="441" y="-33" type="line"/>
      <point x="465" y="-26" type="line"/>
      <point x="465" y="500" type="line"/>
      <point x="407" y="551" type="line"/>
      <point x="382" y="562" type="line"/>
    </contour>
    <contour>
      <point x="412" y="340" type="line"/>
      <point x="389" y="257"/>
      <point x="315" y="211"/>
      <point x="250" y="211" type="curve" smooth="yes"/>
      <point x="208" y="211"/>
      <point x="171" y="229"/>
      <point x="151" y="267" type="curve"/>
      <point x="151" y="500" type="line"/>
      <point x="93" y="551" type="line"/>
      <point x="68" y="562" type="line"/>
      <point x="68" y="362" type="line" smooth="yes"/>
      <point x="68" y="243"/>
      <point x="188" y="135"/>
      <point x="287" y="135" type="curve" smooth="yes"/>
      <point x="339" y="135"/>
      <point x="401" y="165"/>
      <point x="441" y="244" type="curve"/>
    </contour>
  </outline>
</glyph>
<glyph name="dvPha" format="1">
  <advance width="763"/>
  <unicode hex="092B"/>
  <outline>
    <contour>
      <point x="784" y="538" type="line"/>
      <point x="793" y="558" type="line"/>
      <point x="763" y="608" type="line"/>
      <point x="-21" y="608" type="line"/>
      <point x="-30" y="588" type="line"/>
      <point x="0" y="538" type="line"/>
    </contour>
    <contour>
      <point x="342" y="5" type="line"/>
      <point x="401" y="-33" type="line"/>
      <point x="425" y="-26" type="line"/>
      <point x="425" y="500" type="line"/>
      <point x="367" y="551" type="line"/>
      <point x="342" y="562" type="line"/>
    </contour>
    <contour>
      <point x="410" y="206" type="line"/>
      <point x="483" y="295"/>
      <point x="555" y="331"/>
      <point x="598" y="331" type="curve" smooth="yes"/>
      <point x="636" y="331"/>
      <point x="658" y="303"/>
      <point x="658" y="270" type="curve" smooth="yes"/>
      <point x="658" y="219"/>
      <point x="606" y="160"/>
      <point x="518" y="89" type="curve"/>
      <point x="579" y="20" type="line"/>
      <point x="683" y="102"/>
      <point x="721" y="163"/>
      <point x="721" y="231" type="curve" smooth="yes"/>
      <point x="721" y="322"/>
      <point x="652" y="409"/>
      <point x="569" y="409" type="curve" smooth="yes"/>
      <point x="510" y="409"/>
      <point x="433" y="364"/>
      <point x="385" y="296" type="curve"/>
    </contour>
    <contour>
      <point x="58" y="382" type="line" smooth="yes"/>
      <point x="58" y="264"/>
      <point x="169" y="146"/>
      <point x="270" y="146" type="curve" smooth="yes"/>
      <point x="310" y="146"/>
      <point x="375" y="165"/>
      <point x="423" y="260" type="curve"/>
      <point x="371" y="321" type="line"/>
      <point x="339" y="251"/>
      <point x="286" y="227"/>
      <point x="240" y="227" type="curve" smooth="yes"/>
      <point x="196" y="227"/>
      <point x="159" y="249"/>
      <point x="141" y="287" type="curve"/>
      <point x="141" y="500" type="line"/>
      <point x="83" y="551" type="line"/>
      <point x="58" y="562" type="line"/>
    </contour>
  </outline>
</glyph>
<glyph name="dvBa" format="1">
  <advance width="575"/>
  <unicode hex="092C"/>
  <outline>
    <contour>
      <point x="257" y="450" type="line"/>
      <point x="147" y="477"/>
      <point x="34" y="409"/>
      <point x="34" y="296" type="curve" smooth="yes"/>
      <point x="34" y="171"/>
      <point x="171" y="84"/>
      <point x="276" y="84" type="curve" smooth="yes"/>
      <point x="334" y="84"/>
      <point x="403" y="111"/>
      <point x="437" y="163" type="curve"/>
      <point x="424" y="285" type="line"/>
      <point x="374" y="147"/>
      <point x="212" y="126"/>
      <point x="144" y="171" type="curve"/>
      <point x="77" y="248"/>
      <point x="110" y="382"/>
      <point x="242" y="382" type="curve" smooth="yes"/>
      <point x="294" y="382"/>
      <point x="353" y="361"/>
      <point x="408" y="326" type="curve"/>
      <point x="420" y="369" type="line"/>
    </contour>
    <contour>
      <point x="596" y="538" type="line"/>
      <point x="605" y="558" type="line"/>
      <point x="575" y="608" type="line"/>
      <point x="-21" y="608" type="line"/>
      <point x="-30" y="588" type="line"/>
      <point x="0" y="538" type="line"/>
    </contour>
    <contour>
      <point x="402" y="5" type="line"/>
      <point x="461" y="-33" type="line"/>
      <point x="485" y="-26" type="line"/>
      <point x="485" y="500" type="line"/>
      <point x="427" y="551" type="line"/>
      <point x="402" y="562" type="line"/>
    </contour>
    <contour>
      <point x="314" y="134" type="line"/>
      <point x="351" y="162" type="line"/>
      <point x="202" y="408" type="line"/>
      <point x="161" y="384" type="line"/>
    </contour>
  </outline>
</glyph>
<glyph name="dvSsa" format="1">
  <advance width="565"/>
  <unicode hex="0937"/>
  <outline>
    <contour>
      <point x="586" y="538" type="line"/>
      <point x="595" y="558" type="line"/>
      <point x="565" y="608" type="line"/>
      <point x="-21" y="608" type="line"/>
      <point x="-30" y="588" type="line"/>
      <point x="0" y="538" type="line"/>
    </contour>
    <contour>
      <point x="392" y="5" type="line"/>
      <point x="451" y="-33" type="line"/>
      <point x="475" y="-26" type="line"/>
      <point x="475" y="500" type="line"/>
      <point x="417" y="551" type="line"/>
      <point x="392" y="562" type="line"/>
    </contour>
    <contour>
      <point x="93" y="572" type="line"/>
      <point x="374" y="219" type="line"/>
      <point x="418" y="246" type="line"/>
      <point x="141" y="590" type="line"/>
    </contour>
    <contour>
      <point x="411" y="333" type="line"/>
      <point x="389" y="254"/>
      <point x="342" y="206"/>
      <point x="262" y="206" type="curve" smooth="yes"/>
      <point x="218" y="206"/>
      <point x="168" y="230"/>
      <point x="151" y="267" type="curve"/>
      <point x="151" y="544" type="line"/>
      <point x="123" y="565" type="line"/>
      <point x="68" y="562" type="line"/>
      <point x="68" y="362" type="line" smooth="yes"/>
      <point x="68" y="243"/>
      <point x="189" y="129"/>
      <point x="293" y="129" type="curve" smooth="yes"/>
      <point x="358" y="129"/>
      <point x="405" y="160"/>
      <point x="445" y="239" type="curve"/>
    </contour>
  </outline>
</glyph>
<glyph name="dvSa" format="1">
  <advance width="696"/>
  <unicode hex="0938"/>
  <outline>
    <contour>
      <point x="717" y="538" type="line"/>
      <point x="726" y="558" type="line"/>
      <point x="696" y="608" type="line"/>
      <point x="342" y="608" type="line"/>
      <point x="333" y="588" type="line"/>
      <point x="363" y="538" type="line"/>
    </contour>
    <contour>
      <point x="523" y="5" type="line"/>
      <point x="582" y="-33" type="line"/>
      <point x="606" y="-26" type="line"/>
      <point x="606" y="500" type="line"/>
      <point x="548" y="551" type="line"/>
      <point x="523" y="562" type="line"/>
    </contour>
    <contour>
      <point x="572" y="242" type="line"/>
      <point x="562" y="311" type="line"/>
      <point x="178" y="311" type="line"/>
      <point x="179" y="242" type="line"/>
    </contour>
    <component base="dvRa"/>
  </outline>
</glyph>
<glyph name="dvHa" format="1">
  <advance width="543"/>
  <unicode hex="0939"/>
  <outline>
    <contour>
      <point x="374" y="394" type="line"/>
      <point x="452" y="383" type="line"/>
      <point x="452" y="500" type="line"/>
      <point x="394" y="551" type="line"/>
      <point x="374" y="562" type="line"/>
    </contour>
    <contour>
      <point x="564" y="538" type="line"/>
      <point x="573" y="558" type="line"/>
      <point x="543" y="608" type="line"/>
      <point x="-21" y="608" type="line"/>
      <point x="-30" y="588" type="line"/>
      <point x="0" y="538" type="line"/>
    </contour>
    <contour>
      <point x="402" y="1" type="line"/>
      <point x="456" y="29"/>
      <point x="486" y="73"/>
      <point x="486" y="129" type="curve" smooth="yes"/>
      <point x="486" y="232"/>
      <point x="386" y="301"/>
      <point x="273" y="301" type="curve" smooth="yes"/>
      <point x="167" y="301"/>
      <point x="74" y="240"/>
      <point x="74" y="133" type="curve" smooth="yes"/>
      <point x="74" y="-18"/>
      <point x="258" y="-121"/>
      <point x="440" y="-160" type="curve"/>
      <point x="461" y="-111" type="line"/>
      <point x="305" y="-74"/>
      <point x="156" y="-3"/>
      <point x="156" y="106" type="curve" smooth="yes"/>
      <point x="156" y="185"/>
      <point x="235" y="226"/>
      <point x="309" y="226" type="curve" smooth="yes"/>
      <point x="352" y="226"/>
      <point x="392" y="212"/>
      <point x="418" y="188" type="curve"/>
      <point x="431" y="152"/>
      <point x="398" y="99"/>
      <point x="347" y="68" type="curve"/>
    </contour>
    <contour>
      <point x="226" y="221" type="line"/>
      <point x="155" y="264"/>
      <point x="123" y="281"/>
      <point x="123" y="319" type="curve" smooth="yes"/>
      <point x="123" y="354"/>
      <point x="151" y="383"/>
      <point x="229" y="383" type="curve" smooth="yes"/>
      <point x="452" y="383" type="line"/>
      <point x="378" y="464" type="line"/>
      <point x="212" y="464" type="line" smooth="yes"/>
      <point x="78" y="464"/>
      <point x="52" y="403"/>
      <point x="52" y="360" type="curve" smooth="yes"/>
      <point x="52" y="290"/>
      <point x="123" y="228"/>
      <point x="200" y="192" type="curve"/>
    </contour>
  </outline>
</glyph>
<glyph name="dvMatraAa" format="1">
  <advance width="263"/>
  <unicode hex="093E"/>
  <outline>
    <contour>
      <point x="284" y="538" type="line"/>
      <point x="293" y="558" type="line"/>
      <point x="263" y="608" type="line"/>
      <point x="-21" y="608" type="line"/>
      <point x="-30" y="588" type="line"/>
      <point x="0" y="538" type="line"/>
    </contour>
    <contour>
      <point x="90" y="5" type="line"/>
      <point x="149" y="-33" type="line"/>
      <point x="173" y="-26" type="line"/>
      <point x="173" y="500" type="line"/>
      <point x="115" y="551" type="line"/>
      <point x="90" y="562" type="line"/>
    </contour>
  </outline>
</glyph>
<glyph name="dvMatraI" format="1">
  <advance width="263"/>
  <unicode hex="093F"/>
  <outline>
    <contour>
      <point x="284" y="538" type="line"/>
      <point x="293" y="558" type="line"/>
      <point x="263" y="608" type="line"/>
      <point x="-21" y="608" type="line"/>
      <point x="-30" y="588" type="line"/>
      <point x="0" y="538" type="line"/>
    </contour>
    <contour>
      <point x="90" y="5" type="line"/>
      <point x="149" y="-33" type="line"/>
      <point x="173" y="-26" type="line"/>
      <point x="173" y="500" type="line"/>
      <point x="115" y="551" type="line"/>
      <point x="90" y="562" type="line"/>
    </contour>
    <contour>
      <point x="656" y="665" type="line"/>
      <point x="471" y="839"/>
      <point x="318" y="887"/>
      <point x="223" y="887" type="curve" smooth="yes"/>
      <point x="125" y="887"/>
      <point x="28" y="836"/>
      <point x="28" y="733" type="curve" smooth="yes"/>
      <point x="28" y="688"/>
      <point x="47" y="645"/>
      <point x="99" y="597" type="curve"/>
      <point x="149" y="597" type="line"/>
      <point x="120" y="639"/>
      <point x="110" y="669"/>
      <point x="110" y="696" type="curve" smooth="yes"/>
      <point x="110" y="768"/>
      <point x="178" y="814"/>
      <point x="266" y="814" type="curve" smooth="yes"/>
      <point x="370" y="814"/>
      <point x="486" y="750"/>
      <point x="628" y="635" type="curve"/>
    </contour>
  </outline>
</glyph>
<glyph name="dvMatraU" format="1">
  <advance width="0"/>
  <unicode hex="0941"/>
  <outline>
    <contour>
      <point x="-212" y="-119" type="line"/>
      <point x="-135" y="-42" type="line"/>
      <point x="-100" y="-56"/>
      <point x="-84" y="-83"/>
      <point x="-84" y="-111" type="curve" smooth="yes"/>
      <point x="-84" y="-152"/>
      <point x="-119" y="-197"/>
      <point x="-185" y="-197" type="curve" smooth="yes"/>
      <point x="-266" y="-197"/>
      <point x="-345" y="-129"/>
      <point x="-438" y="-28" type="curve"/>
      <point x="-473" y="-60" type="line"/>
      <point x="-368" y="-182"/>
      <point x="-256" y="-271"/>
      <point x="-154" y="-271" type="curve" smooth="yes"/>
      <point x="-78" y="-271"/>
      <point x="-17" y="-221"/>
      <point x="-17" y="-145" type="curve" smooth="yes"/>
      <point x="-17" y="-68"/>
      <point x="-79" y="8"/>
      <point x="-162" y="8" type="curve" smooth="yes"/>
      <point x="-204" y="8"/>
      <point x="-244" y="-12"/>
      <point x="-271" y="-55" type="curve"/>
    </contour>
  </outline>
</glyph>
<glyph name="dvMatraShortE" format="1">
  <advance width="0"/>
  <unicode hex="0946"/>
  <outline>
    <contour>
      <point x="-511" y="905" type="line"/>
      <point x="-464" y="582"/>
      <point x="-175" y="824"/>
      <point x="-165" y="601" type="curve"/>
      <point x="-114" y="601" type="line"/>
      <point x="-127" y="941"/>
      <point x="-419" y="686"/>
      <point x="-466" y="915" type="curve"/>
    </contour>
  </outline>
</glyph>
<glyph name="dvHalant" format="1">
  <advance width="0"/>
  <unicode hex="094D"/>
  <outline>
    <contour>
      <point x="86" y="-236" type="line"/>
      <point x="-29" y="-127" type="line" smooth="yes"/>
      <point x="-84" y="-75"/>
      <point x="-113" y="-56"/>
      <point x="-151" y="-56" type="curve" smooth="yes"/>
      <point x="-187" y="-56"/>
      <point x="-211" y="-74"/>
      <point x="-256" y="-105" type="curve"/>
      <point x="-196" y="-179" type="line"/>
      <point x="-115" y="-127" type="line"/>
      <point x="51" y="-273" type="line"/>
    </contour>
  </outline>
</glyph>
<glyph name="dvDanda" format="1">
  <advance width="438"/>
  <unicode hex="0964"/>
  <outline>
    <contour>
      <point x="246" y="641" type="line"/>
      <point x="222" y="634" type="line"/>
      <point x="222" y="3" type="line"/>
      <point x="279" y="-45" type="line"/>
      <point x="303" y="-38" type="line"/>
      <point x="303" y="593" type="line"/>
    </contour>
  </outline>
</glyph>
<glyph name="dvTwo" format="1">
  <advance width="487"/>
  <unicode hex="0968"/>
  <outline>
    <contour>
      <point x="79" y="483" type="line"/>
      <point x="139" y="534"/>
      <point x="216" y="570"/>
      <point x="284" y="566" type="curve"/>
      <point x="334" y="531"/>
      <point x="346" y="491"/>
      <point x="346" y="455" type="curve" smooth="yes"/>
      <point x="346" y="362"/>
      <point x="264" y="274"/>
      <point x="91" y="268" type="curve"/>
      <point x="173" y="196" type="line"/>
      <point x="334" y="219"/>
      <point x="423" y="326"/>
      <point x="423" y="424" type="curve" smooth="yes"/>
      <point x="423" y="523"/>
      <point x="332" y="631"/>
      <point x="211" y="631" type="curve" smooth="yes"/>
      <point x="138" y="631"/>
      <point x="70" y="592"/>
      <point x="30" y="555" type="curve"/>
    </contour>
    <contour>
      <point x="456" y="17" type="line"/>
      <point x="200" y="235" type="line"/>
      <point x="134" y="220" type="line"/>
      <point x="415" y="-33" type="line"/>
      <point x="457" y="0" type="line"/>
    </contour>
    <contour>
      <point x="200" y="254" type="line"/>
      <point x="123" y="343" type="line"/>
      <point x="90" y="335" type="line"/>
      <point x="58" y="227" type="line"/>
      <point x="75" y="207"/>
      <point x="144" y="188"/>
      <point x="180" y="196" type="curve"/>
    </contour>
  </outline>
</glyph>
<glyph name="dvFive" format="1">
  <advance width="520"/>
  <unicode hex="096B"/>
  <outline>
    <contour>
      <point x="390" y="273" type="line"/>
      <point x="369" y="204"/>
      <point x="307" y="151"/>
      <point x="240" y="151" type="curve" smooth="yes"/>
      <point x="197" y="151"/>
      <point x="149" y="173"/>
      <point x="114" y="205" type="curve" smooth="yes"/>
      <point x="70" y="245"/>
      <point x="40" y="306"/>
      <point x="40" y="379" type="curve" smooth="yes"/>
      <point x="40" y="455"/>
      <point x="72" y="550"/>
      <point x="110" y="622" type="curve"/>
      <point x="188" y="591" type="line"/>
      <point x="143" y="493"/>
      <point x="84" y="339"/>
      <point x="138" y="248" type="curve"/>
      <point x="217" y="189"/>
      <point x="320" y="255"/>
      <point x="327" y="351" type="curve"/>
    </contour>
    <contour>
      <point x="442" y="-30" type="line"/>
      <point x="331" y="329" type="line"/>
      <point x="392" y="314" type="line"/>
      <point x="497" y="-3" type="line"/>
      <point x="489" y="-19" type="line"/>
    </contour>
    <contour>
      <point x="356" y="285" type="line"/>
      <point x="332" y="294" type="line"/>
      <point x="291" y="416" type="line"/>
      <point x="312" y="443" type="line"/>
      <point x="416" y="417" type="line"/>
      <point x="418" y="373"/>
      <point x="404" y="324"/>
      <point x="392" y="295" type="curve"/>
    </contour>
  </outline>
</glyph>
<glyph name="dvSeven" format="1">
  <advance width="578"/>
  <unicode hex="096D"/>
  <outline>
    <contour>
      <point x="0" y="526" type="line"/>
      <point x="41" y="349"/>
      <point x="140" y="20"/>
      <point x="359" y="20" type="curve" smooth="yes"/>
      <point x="480" y="20"/>
      <point x="539" y="121"/>
      <point x="539" y="233" type="curve" smooth="yes"/>
      <point x="539" y="373"/>
      <point x="447" y="523"/>
      <point x="334" y="523" type="curve" smooth="yes"/>
      <point x="268" y="523"/>
      <point x="221" y="471"/>
      <point x="221" y="408" type="curve" smooth="yes"/>
      <point x="221" y="373"/>
      <point x="235" y="332"/>
      <point x="268" y="295" type="curve" smooth="yes"/>
      <point x="301" y="258"/>
      <point x="351" y="225"/>
      <point x="404" y="225" type="curve" smooth="yes"/>
      <point x="431" y="225"/>
      <point x="460" y="233"/>
      <point x="488" y="252" type="curve"/>
      <point x="484" y="351" type="line"/>
      <point x="452" y="299"/>
      <point x="353" y="280"/>
      <point x="308" y="310" type="curve"/>
      <point x="279" y="374"/>
      <point x="311" y="454"/>
      <point x="373" y="454" type="curve" smooth="yes"/>
      <point x="433" y="454"/>
      <point x="467" y="379"/>
      <point x="467" y="287" type="curve" smooth="yes"/>
      <point x="467" y="168"/>
      <point x="411" y="110"/>
      <point x="331" y="110" type="curve" smooth="yes"/>
      <point x="206" y="110"/>
      <point x="124" y="249"/>
      <point x="58" y="546" type="curve"/>
    </contour>
  </outline>
</glyph>
<glyph name="dvEight" format="1">
  <advance width="443"/>
  <unicode hex="096E"/>
  <outline>
    <contour>
      <point x="298" y="598" type="line"/>
      <point x="116" y="367" type="line" smooth="yes"/>
      <point x="63" y="301"/>
      <point x="47" y="248"/>
      <point x="47" y="211" type="curve" smooth="yes"/>
      <point x="47" y="121"/>
      <point x="141" y="13"/>
      <point x="251" y="13" type="curve" smooth="yes"/>
      <point x="321" y="13"/>
      <point x="376" y="58"/>
      <point x="418" y="125" type="curve"/>
      <point x="359" y="182" type="line"/>
      <point x="323" y="124"/>
      <point x="279" y="84"/>
      <point x="219" y="84" type="curve" smooth="yes"/>
      <point x="163" y="84"/>
      <point x="114" y="119"/>
      <point x="114" y="183" type="curve" smooth="yes"/>
      <point x="114" y="213"/>
      <point x="125" y="249"/>
      <point x="176" y="314" type="curve" smooth="yes"/>
      <point x="345" y="530" type="line"/>
    </contour>
  </outline>
</glyph>
<glyph name="dvNine" format="1">
  <advance width="458"/>
  <unicode hex="096F"/>
  <outline>
    <contour>
      <point x="74" y="631"/>
      <point x="12" y="574"/>
      <point x="12" y="494" type="curve" smooth="yes"/>
      <point x="12" y="416"/>
      <point x="70" y="360"/>
      <point x="114" y="316" type="curve" smooth="yes"/>
      <point x="319" y="110" type="line" smooth="yes"/>
      <point x="357" y="72"/>
      <point x="364" y="38"/>
      <point x="334" y="3" type="curve"/>
      <point x="411" y="-36" type="line"/>
      <point x="430" y="-14"/>
      <point x="438" y="3"/>
      <point x="438" y="24" type="curve" smooth="yes"/>
      <point x="438" y="58"/>
      <point x="416" y="93"/>
      <point x="367" y="141" type="curve" smooth="yes"/>
      <point x="182" y="320" type="line" smooth="yes"/>
      <point x="130" y="371"/>
      <point x="95" y="412"/>
      <point x="95" y="467" type="curve" smooth="yes"/>
      <point x="95" y="521"/>
      <point x="130" y="563"/>
      <point x="178" y="563" type="curve" smooth="yes"/>
      <point x="224" y="563"/>
      <point x="247" y="524"/>
      <point x="247" y="490" type="curve" smooth="yes"/>
      <point x="247" y="435"/>
      <point x="187" y="375"/>
      <point x="116" y="344" type="curve"/>
      <point x="186" y="283" type="line"/>
      <point x="261" y="323"/>
      <point x="316" y="385"/>
      <point x="316" y="450" type="curve" smooth="yes"/>
      <point x="316" y="526"/>
      <point x="242" y="631"/>
      <point x="145" y="631" type="curve" smooth="yes"/>
    </contour>
  </outline>
</glyph>
<glyph name="zerowidthnonjoiner" format="1">
  <advance width="0"/>
  <unicode hex="200C"/>
  <outline>
    <contour>
      <point x="-68" y="831" type="line"/>
      <point x="-19" y="782" type="line"/>
      <point x="-68" y="732" type="line"/>
      <point x="-50" y="713" type="line"/>
      <point x="0" y="763" type="line"/>
      <point x="50" y="713" type="line"/>
      <point x="68" y="731" type="line"/>
      <point x="18" y="781" type="line"/>
      <point x="68" y="831" type="line"/>
      <point x="50" y="850" type="line"/>
      <point x="0" y="800" type="line"/>
      <point x="-49" y="850" type="line"/>
    </contour>
  </outline>
</glyph>
<glyph name="zerowidthjoiner" format="1">
  <advance width="0"/>
  <unicode hex="200D"/>
  <outline>
    <contour>
      <point x="100" y="725" type="line"/>
      <point x="100" y="795" type="line"/>
      <point x="-99" y="795" type="line"/>
      <point x="-99" y="725" type="line"/>
      <point x="-72" y="725" type="line"/>
      <point x="-72" y="769" type="line"/>
      <point x="73" y="769" type="line"/>
      <point x="73" y="725" type="line"/>
    </contour>
  </outline>
</glyph>
<glyph name="quotedblleft" format="1">
  <advance width="467"/>
  <unicode hex="201C"/>
  <outline>
    <contour>
      <point x="145" y="718" type="line"/>
      <point x="3" y="638"/>
      <point x="28" y="522"/>
      <point x="28" y="522" type="curve"/>
      <point x="28" y="522"/>
      <point x="31" y="479"/>
      <point x="97" y="452" type="curve"/>
      <point x="97" y="452"/>
      <point x="152" y="476"/>
      <point x="158" y="532" type="curve"/>
      <point x="106" y="572" type="line"/>
      <point x="106" y="572"/>
      <point x="110" y="633"/>
      <point x="174" y="680" type="curve"/>
    </contour>
    <contour>
      <point x="310" y="718" type="line"/>
      <point x="168" y="638"/>
      <point x="193" y="522"/>
      <point x="193" y="522" type="curve"/>
      <point x="193" y="522"/>
      <point x="196" y="479"/>
      <point x="262" y="452" type="curve"/>
      <point x="262" y="452"/>
      <point x="317" y="476"/>
      <point x="323" y="532" type="curve"/>
      <point x="271" y="572" type="line"/>
      <point x="271" y="572"/>
      <point x="275" y="633"/>
      <point x="339" y="680" type="curve"/>
    </contour>
  </outline>
</glyph>
<glyph name="quotedblright" format="1">
  <advance width="577"/>
  <unicode hex="201D"/>
  <outline>
    <contour>
      <point x="349" y="682" type="line"/>
      <point x="413" y="635"/>
      <point x="417" y="574"/>
      <point x="417" y="574" type="curve"/>
      <point x="365" y="534" type="line"/>
      <point x="371" y="478"/>
      <point x="426" y="454"/>
      <point x="426" y="454" type="curve"/>
      <point x="492" y="481"/>
      <point x="495" y="524"/>
      <point x="495" y="524" type="curve"/>
      <point x="495" y="524"/>
      <point x="520" y="640"/>
      <point x="378" y="720" type="curve"/>
    </contour>
    <contour>
      <point x="184" y="682" type="line"/>
      <point x="248" y="635"/>
      <point x="252" y="574"/>
      <point x="252" y="574" type="curve"/>
      <point x="200" y="534" type="line"/>
      <point x="206" y="478"/>
      <point x="261" y="454"/>
      <point x="261" y="454" type="curve"/>
      <point x="327" y="481"/>
      <point x="330" y="524"/>
      <point x="330" y="524" type="curve"/>
      <point x="330" y="524"/>
      <point x="355" y="640"/>
      <point x="213" y="720" type="curve"/>
    </contour>
  </outline>
</glyph>
<glyph name=".notdef" format="1">
  <advance width="518"/>
  <outline>
    <contour>
      <point x="50" y="23" type="line"/>
      <point x="468" y="23" type="line"/>
      <point x="468" y="458" type="line"/>
      <point x="50" y="458" type="line"/>
    </contour>
    <contour>
      <point x="108" y="393" type="line"/>
      <point x="412" y="393" type="line"/>
      <point x="412" y="89" type="line"/>
      <point x="108" y="89" type="line"/>
    </contour>
  </outline>
</glyph>
<glyph name="dvC" format="1">
  <advance width="443"/>
  <outline>
    <contour>
      <point x="190" y="400" type="line"/>
      <point x="148" y="375"/>
      <point x="125" y="329"/>
      <point x="125" y="285" type="curve" smooth="yes"/>
      <point x="125" y="230"/>
      <point x="161" y="185"/>
      <point x="204" y="152" type="curve" smooth="yes"/>
      <point x="238" y="126"/>
      <point x="290" y="98"/>
      <point x="346" y="98" type="curve" smooth="yes"/>
      <point x="412" y="98"/>
      <point x="517" y="137"/>
      <point x="561" y="238" type="curve"/>
      <point x="498" y="293" type="line"/>
      <point x="454" y="180"/>
      <point x="304" y="147"/>
      <point x="234" y="177" type="curve"/>
      <point x="187" y="227"/>
      <point x="201" y="320"/>
      <point x="268" y="356" type="curve"/>
    </contour>
    <contour>
      <point x="496" y="538" type="line"/>
      <point x="505" y="558" type="line"/>
      <point x="475" y="608" type="line"/>
      <point x="-21" y="608" type="line"/>
      <point x="-30" y="588" type="line"/>
      <point x="0" y="538" type="line"/>
    </contour>
    <contour>
      <point x="156" y="350" type="line"/>
      <point x="180" y="346" type="line"/>
      <point x="397" y="346" type="line"/>
      <point x="406" y="366" type="line"/>
      <point x="376" y="416" type="line"/>
      <point x="27" y="416" type="line"/>
      <point x="18" y="396" type="line"/>
      <point x="46" y="350" type="line"/>
    </contour>
  </outline>
</glyph>
<glyph name="dvCRa" format="1">
  <advance width="635"/>
  <outline>
    <contour>
      <point x="142" y="6" type="line"/>
      <point x="205" y="-44" type="line"/>
      <point x="524" y="196" type="line"/>
      <point x="480" y="245" type="line" smooth="yes"/>
    </contour>
    <contour>
      <point x="190" y="400" type="line"/>
      <point x="148" y="375"/>
      <point x="125" y="329"/>
      <point x="125" y="285" type="curve" smooth="yes"/>
      <point x="125" y="230"/>
      <point x="161" y="185"/>
      <point x="204" y="152" type="curve" smooth="yes"/>
      <point x="240" y="124"/>
      <point x="292" y="98"/>
      <point x="347" y="98" type="curve" smooth="yes"/>
      <point x="356" y="98"/>
      <point x="364" y="99"/>
      <point x="372" y="100" type="curve"/>
      <point x="508" y="205" type="line"/>
      <point x="484" y="295" type="line"/>
      <point x="441" y="185"/>
      <point x="304" y="147"/>
      <point x="234" y="177" type="curve"/>
      <point x="187" y="227"/>
      <point x="201" y="320"/>
      <point x="268" y="356" type="curve"/>
    </contour>
    <contour>
      <point x="462" y="5" type="line"/>
      <point x="521" y="-33" type="line"/>
      <point x="545" y="-26" type="line"/>
      <point x="545" y="500" type="line"/>
      <point x="487" y="551" type="line"/>
      <point x="462" y="562" type="line"/>
    </contour>
    <contour>
      <point x="656" y="538" type="line"/>
      <point x="665" y="558" type="line"/>
      <point x="635" y="608" type="line"/>
      <point x="-21" y="608" type="line"/>
      <point x="-30" y="588" type="line"/>
      <point x="0" y="538" type="line"/>
    </contour>
    <contour>
      <point x="156" y="350" type="line"/>
      <point x="180" y="346" type="line"/>
      <point x="397" y="346" type="line"/>
      <point x="406" y="366" type="line"/>
      <point x="376" y="416" type="line"/>
      <point x="27" y="416" type="line"/>
      <point x="18" y="396" type="line"/>
      <point x="46" y="350" type="line"/>
    </contour>
  </outline>
</glyph>
<glyph name="dvDDa" format="1">
  <advance width="531"/>
  <outline>
    <contour>
      <point x="417" y="68" type="line"/>
      <point x="379" y="17"/>
      <point x="279" y="3"/>
      <point x="207" y="27" type="curve"/>
      <point x="177" y="52"/>
      <point x="161" y="86"/>
      <point x="161" y="116" type="curve" smooth="yes"/>
      <point x="161" y="162"/>
      <point x="199" y="208"/>
      <point x="281" y="208" type="curve" smooth="yes"/>
      <point x="446" y="208" type="line"/>
      <point x="455" y="228" type="line"/>
      <point x="417" y="291" type="line"/>
      <point x="266" y="291" type="line" smooth="yes"/>
      <point x="150" y="291"/>
      <point x="83" y="230"/>
      <point x="83" y="152" type="curve" smooth="yes"/>
      <point x="83" y="38"/>
      <point x="226" y="-61"/>
      <point x="337" y="-61" type="curve" smooth="yes"/>
      <point x="372" y="-61"/>
      <point x="422" y="-51"/>
      <point x="455" y="-29" type="curve"/>
    </contour>
    <contour>
      <point x="552" y="538" type="line"/>
      <point x="561" y="558" type="line"/>
      <point x="531" y="608" type="line"/>
      <point x="-21" y="608" type="line"/>
      <point x="-30" y="588" type="line"/>
      <point x="0" y="538" type="line"/>
    </contour>
    <contour>
      <point x="364" y="112" type="line"/>
      <point x="396" y="-45" type="line"/>
      <point x="445" y="-37" type="line"/>
      <point x="477" y="-13"/>
      <point x="509" y="21"/>
      <point x="518" y="48" type="curve"/>
      <point x="430" y="144" type="line"/>
    </contour>
    <contour>
      <point x="400" y="7" type="line"/>
      <point x="462" y="-243" type="line"/>
      <point x="552" y="-208" type="line"/>
      <point x="432" y="38" type="line"/>
    </contour>
    <contour>
      <point x="368" y="404" type="line"/>
      <point x="446" y="393" type="line"/>
      <point x="446" y="500" type="line"/>
      <point x="388" y="551" type="line"/>
      <point x="368" y="562" type="line"/>
    </contour>
    <contour>
      <point x="185" y="260" type="line"/>
      <point x="144" y="288"/>
      <point x="127" y="312"/>
      <point x="127" y="336" type="curve" smooth="yes"/>
      <point x="127" y="366"/>
      <point x="153" y="393"/>
      <point x="230" y="393" type="curve" smooth="yes"/>
      <point x="446" y="393" type="line"/>
      <point x="382" y="474" type="line"/>
      <point x="213" y="474" type="line" smooth="yes"/>
      <point x="80" y="474"/>
      <point x="54" y="415"/>
      <point x="54" y="373" type="curve" smooth="yes"/>
      <point x="54" y="316"/>
      <point x="103" y="266"/>
      <point x="158" y="228" type="curve"/>
    </contour>
  </outline>
</glyph>
<glyph name="dvDa_dvMatraUu" format="1">
  <advance width="561"/>
  <outline>
    <contour>
      <point x="343" y="381" type="line"/>
      <point x="426" y="340" type="line"/>
      <point x="426" y="500" type="line"/>
      <point x="368" y="551" type="line"/>
      <point x="343" y="562" type="line"/>
    </contour>
    <contour>
      <point x="582" y="538" type="line"/>
      <point x="591" y="558" type="line"/>
      <point x="561" y="608" type="line"/>
      <point x="-21" y="608" type="line"/>
      <point x="-30" y="588" type="line"/>
      <point x="0" y="538" type="line"/>
    </contour>
    <contour>
      <point x="433" y="-104" type="line"/>
      <point x="496" y="-103" type="line"/>
      <point x="430" y="116" type="line"/>
      <point x="380" y="80" type="line"/>
    </contour>
    <contour>
      <point x="397" y="141" type="line"/>
      <point x="359" y="90"/>
      <point x="272" y="74"/>
      <point x="200" y="98" type="curve"/>
      <point x="161" y="128"/>
      <point x="128" y="175"/>
      <point x="128" y="221" type="curve" smooth="yes"/>
      <point x="128" y="272"/>
      <point x="169" y="339"/>
      <point x="268" y="339" type="curve" smooth="yes"/>
      <point x="426" y="339" type="line"/>
      <point x="349" y="422" type="line"/>
      <point x="253" y="422" type="line" smooth="yes"/>
      <point x="112" y="422"/>
      <point x="48" y="340"/>
      <point x="48" y="254" type="curve" smooth="yes"/>
      <point x="48" y="118"/>
      <point x="209" y="12"/>
      <point x="326" y="12" type="curve" smooth="yes"/>
      <point x="362" y="12"/>
      <point x="402" y="22"/>
      <point x="435" y="44" type="curve"/>
    </contour>
    <contour>
      <point x="350" y="208" type="line"/>
      <point x="384" y="40" type="line"/>
      <point x="443" y="48" type="line"/>
      <point x="475" y="72"/>
      <point x="500" y="110"/>
      <point x="506" y="133" type="curve"/>
      <point x="416" y="240" type="line"/>
    </contour>
    <component base="dvMatraUu" xOffset="553" yOffset="-60"/>
  </outline>
</glyph>
<glyph name="dvDdDdYa" format="1">
  <advance width="1115"/>
  <outline>
    <contour>
      <point x="1136" y="538" type="line"/>
      <point x="1145" y="558" type="line"/>
      <point x="1115" y="608" type="line"/>
      <point x="507" y="608" type="line"/>
      <point x="498" y="588" type="line"/>
      <point x="528" y="538" type="line"/>
    </contour>
    <contour>
      <point x="942" y="-15" type="line"/>
      <point x="1001" y="-53" type="line"/>
      <point x="1025" y="-46" type="line"/>
      <point x="1025" y="500" type="line"/>
      <point x="967" y="551" type="line"/>
      <point x="942" y="562" type="line"/>
    </contour>
    <contour>
      <point x="587" y="252" type="line"/>
      <point x="642" y="139"/>
      <point x="728" y="69"/>
      <point x="829" y="69" type="curve" smooth="yes"/>
      <point x="881" y="69"/>
      <point x="952" y="88"/>
      <point x="987" y="164" type="curve"/>
      <point x="956" y="267" type="line"/>
      <point x="924" y="147"/>
      <point x="783" y="118"/>
      <point x="713" y="148" type="curve"/>
      <point x="688" y="182"/>
      <point x="684" y="209"/>
      <point x="675" y="261" type="curve"/>
    </contour>
    <contour>
      <point x="367" y="464" type="line"/>
      <point x="358" y="444" type="line"/>
      <point x="388" y="384" type="line"/>
      <point x="605" y="384" type="line" smooth="yes"/>
      <point x="706" y="384"/>
      <point x="759" y="380"/>
      <point x="759" y="346" type="curve" smooth="yes"/>
      <point x="759" y="311"/>
      <point x="706" y="291"/>
      <point x="600" y="288" type="curve"/>
      <point x="587" y="252" type="line"/>
      <point x="616" y="210" type="line"/>
      <point x="755" y="204"/>
      <point x="834" y="253"/>
      <point x="834" y="313" type="curve" smooth="yes"/>
      <point x="834" y="378"/>
      <point x="740" y="464"/>
      <point x="647" y="464" type="curve" smooth="yes"/>
    </contour>
    <component base="dvDdDda"/>
  </outline>
</glyph>
<glyph name="dvG" format="1">
  <advance width="320"/>
  <outline>
    <contour>
      <point x="45" y="272" type="line"/>
      <point x="64" y="217"/>
      <point x="125" y="158"/>
      <point x="177" y="128" type="curve"/>
      <point x="225" y="148" type="line"/>
      <point x="225" y="276" type="line"/>
      <point x="164" y="311" type="line"/>
      <point x="73" y="311" type="line"/>
    </contour>
    <contour>
      <point x="341" y="538" type="line"/>
      <point x="350" y="558" type="line"/>
      <point x="320" y="608" type="line"/>
      <point x="-21" y="608" type="line"/>
      <point x="-30" y="588" type="line"/>
      <point x="0" y="538" type="line"/>
    </contour>
    <contour>
      <point x="142" y="263" type="line"/>
      <point x="225" y="232" type="line"/>
      <point x="225" y="500" type="line"/>
      <point x="167" y="551" type="line"/>
      <point x="142" y="562" type="line"/>
    </contour>
  </outline>
</glyph>
<glyph name="dvH" format="1">
  <advance width="513"/>
  <outline>
    <contour>
      <point x="354" y="394" type="line"/>
      <point x="432" y="383" type="line"/>
      <point x="432" y="500" type="line"/>
      <point x="374" y="551" type="line"/>
      <point x="354" y="562" type="line"/>
    </contour>
    <contour>
      <point x="574" y="538" type="line"/>
      <point x="583" y="558" type="line"/>
      <point x="553" y="608" type="line"/>
      <point x="-21" y="608" type="line"/>
      <point x="-30" y="588" type="line"/>
      <point x="0" y="538" type="line"/>
    </contour>
    <contour>
      <point x="571" y="291" type="line"/>
      <point x="273" y="291" type="line"/>
      <point x="167" y="291"/>
      <point x="74" y="240"/>
      <point x="74" y="133" type="curve" smooth="yes"/>
      <point x="74" y="-18"/>
      <point x="258" y="-111"/>
      <point x="440" y="-150" type="curve"/>
      <point x="461" y="-101" type="line"/>
      <point x="305" y="-64"/>
      <point x="156" y="-3"/>
      <point x="156" y="106" type="curve" smooth="yes"/>
      <point x="156" y="185"/>
      <point x="235" y="216"/>
      <point x="309" y="216" type="curve"/>
      <point x="601" y="216" type="line"/>
    </contour>
    <contour>
      <point x="226" y="221" type="line"/>
      <point x="158" y="262"/>
      <point x="123" y="283"/>
      <point x="123" y="320" type="curve" smooth="yes"/>
      <point x="123" y="356"/>
      <point x="155" y="383"/>
      <point x="234" y="383" type="curve" smooth="yes"/>
      <point x="432" y="383" type="line"/>
      <point x="358" y="464" type="line"/>
      <point x="217" y="464" type="line" smooth="yes"/>
      <point x="83" y="464"/>
      <point x="52" y="406"/>
      <point x="52" y="361" type="curve" smooth="yes"/>
      <point x="52" y="293"/>
      <point x="123" y="228"/>
      <point x="200" y="192" type="curve"/>
    </contour>
  </outline>
</glyph>
<glyph name="dvJNya" format="1">
  <advance width="677"/>
  <outline>
    <contour>
      <point x="544" y="453" type="line"/>
      <point x="219" y="453" type="line"/>
      <point x="109" y="453"/>
      <point x="65" y="406"/>
      <point x="65" y="350" type="curve" smooth="yes"/>
      <point x="65" y="309"/>
      <point x="89" y="263"/>
      <point x="127" y="228" type="curve"/>
      <point x="279" y="182" type="line" smooth="yes"/>
      <point x="341" y="163"/>
      <point x="355" y="133"/>
      <point x="355" y="109" type="curve" smooth="yes"/>
      <point x="355" y="46"/>
      <point x="258" y="-1"/>
      <point x="178" y="21" type="curve"/>
      <point x="224" y="-46" type="line"/>
      <point x="316" y="-67"/>
      <point x="424" y="-24"/>
      <point x="424" y="73" type="curve" smooth="yes"/>
      <point x="424" y="135"/>
      <point x="378" y="204"/>
      <point x="313" y="258" type="curve"/>
      <point x="118" y="314" type="line"/>
      <point x="125" y="358"/>
      <point x="167" y="372"/>
      <point x="239" y="372" type="curve"/>
      <point x="544" y="372" type="line"/>
    </contour>
    <contour>
      <point x="504" y="5" type="line"/>
      <point x="563" y="-33" type="line"/>
      <point x="587" y="-26" type="line"/>
      <point x="587" y="500" type="line"/>
      <point x="529" y="551" type="line"/>
      <point x="504" y="562" type="line"/>
    </contour>
    <contour>
      <point x="698" y="538" type="line"/>
      <point x="707" y="558" type="line"/>
      <point x="677" y="608" type="line"/>
      <point x="-21" y="608" type="line"/>
      <point x="-30" y="588" type="line"/>
      <point x="0" y="538" type="line"/>
    </contour>
    <contour>
      <point x="414" y="-154" type="line"/>
      <point x="192" y="-5" type="line"/>
      <point x="143" y="-20" type="line"/>
      <point x="363" y="-221" type="line"/>
      <point x="415" y="-171" type="line"/>
    </contour>
    <contour>
      <point x="208" y="-10" type="line"/>
      <point x="204" y="14" type="line"/>
      <point x="125" y="105" type="line"/>
      <point x="92" y="97" type="line"/>
      <point x="63" y="-15" type="line"/>
      <point x="90" y="-35"/>
      <point x="172" y="-51"/>
      <point x="208" y="-46" type="curve"/>
    </contour>
  </outline>
</glyph>
<glyph name="dvKhRa" format="1">
  <advance width="782"/>
  <outline>
    <contour>
      <point x="280" y="-106" type="line"/>
      <point x="333" y="-163" type="line"/>
      <point x="662" y="64" type="line"/>
      <point x="628" y="113" type="line" smooth="yes"/>
    </contour>
    <component base="dvKha"/>
  </outline>
</glyph>
<glyph name="dvM" format="1">
  <advance width="402"/>
  <outline>
    <contour>
      <point x="57" y="252" type="line"/>
      <point x="81" y="197"/>
      <point x="147" y="127"/>
      <point x="194" y="98" type="curve"/>
      <point x="242" y="118" type="line"/>
      <point x="242" y="256" type="line"/>
      <point x="175" y="291" type="line"/>
      <point x="84" y="291" type="line"/>
    </contour>
    <contour>
      <point x="475" y="538" type="line"/>
      <point x="484" y="558" type="line"/>
      <point x="454" y="608" type="line"/>
      <point x="-21" y="608" type="line"/>
      <point x="-30" y="588" type="line"/>
      <point x="0" y="538" type="line"/>
    </contour>
    <contour>
      <point x="159" y="262" type="line"/>
      <point x="237" y="231" type="line"/>
      <point x="230" y="500" type="line"/>
      <point x="172" y="551" type="line"/>
      <point x="146" y="562" type="line"/>
    </contour>
    <contour>
      <point x="470" y="291" type="line"/>
      <point x="142" y="291" type="line"/>
      <point x="173" y="215" type="line"/>
      <point x="492" y="215" type="line"/>
    </contour>
  </outline>
</glyph>
<glyph name="dvMatraAiAnusvara" format="1">
  <advance width="0"/>
  <outline>
    <contour>
      <point x="-5" y="709"/>
      <point x="19" y="740"/>
      <point x="29" y="766" type="curve"/>
      <point x="15" y="784"/>
      <point x="-15" y="812"/>
      <point x="-41" y="822" type="curve"/>
      <point x="-63" y="809"/>
      <point x="-86" y="779"/>
      <point x="-100" y="750" type="curve"/>
      <point x="-85" y="729"/>
      <point x="-50" y="703"/>
      <point x="-27" y="694" type="curve"/>
    </contour>
    <component base="dvMatraAi"/>
  </outline>
</glyph>
<glyph name="dvMatraAiRephAnusvara" format="1">
  <advance width="0"/>
  <outline>
    <contour>
      <point x="13" y="662"/>
      <point x="35" y="691"/>
      <point x="44" y="714" type="curve"/>
      <point x="31" y="731"/>
      <point x="4" y="756"/>
      <point x="-20" y="765" type="curve"/>
      <point x="-40" y="753"/>
      <point x="-60" y="726"/>
      <point x="-73" y="700" type="curve"/>
      <point x="-60" y="681"/>
      <point x="-28" y="657"/>
      <point x="-7" y="649" type="curve"/>
    </contour>
    <component base="dvMatraAiReph"/>
  </outline>
</glyph>
<glyph name="dvMatraERephAnusvara" format="1">
  <advance width="0"/>
  <outline>
    <contour>
      <point x="-38" y="662"/>
      <point x="-16" y="691"/>
      <point x="-7" y="714" type="curve"/>
      <point x="-20" y="731"/>
      <point x="-47" y="756"/>
      <point x="-71" y="765" type="curve"/>
      <point x="-91" y="753"/>
      <point x="-111" y="726"/>
      <point x="-124" y="700" type="curve"/>
      <point x="-111" y="681"/>
      <point x="-79" y="657"/>
      <point x="-58" y="649" type="curve"/>
    </contour>
    <component base="dvMatraEReph"/>
  </outline>
</glyph>
<glyph name="dvMatraIiRephAnusvara" format="1">
  <advance width="263"/>
  <outline>
    <contour>
      <point x="236" y="673"/>
      <point x="258" y="702"/>
      <point x="267" y="725" type="curve"/>
      <point x="254" y="742"/>
      <point x="227" y="767"/>
      <point x="203" y="776" type="curve"/>
      <point x="183" y="764"/>
      <point x="163" y="737"/>
      <point x="150" y="711" type="curve"/>
      <point x="163" y="692"/>
      <point x="195" y="668"/>
      <point x="216" y="660" type="curve"/>
    </contour>
    <component base="dvMatraIiReph"/>
  </outline>
</glyph>
<glyph name="dvMatraU.small" format="1">
  <advance width="0"/>
  <outline>
    <contour>
      <point x="-215" y="-140" type="line"/>
      <point x="-145" y="-70" type="line"/>
      <point x="-119" y="-79"/>
      <point x="-103" y="-103"/>
      <point x="-103" y="-130" type="curve" smooth="yes"/>
      <point x="-103" y="-168"/>
      <point x="-134" y="-209"/>
      <point x="-193" y="-209" type="curve" smooth="yes"/>
      <point x="-264" y="-209"/>
      <point x="-336" y="-150"/>
      <point x="-423" y="-56" type="curve"/>
      <point x="-454" y="-90" type="line"/>
      <point x="-354" y="-207"/>
      <point x="-254" y="-278"/>
      <point x="-166" y="-278" type="curve" smooth="yes"/>
      <point x="-94" y="-278"/>
      <point x="-39" y="-230"/>
      <point x="-39" y="-161" type="curve" smooth="yes"/>
      <point x="-39" y="-92"/>
      <point x="-94" y="-25"/>
      <point x="-169" y="-25" type="curve" smooth="yes"/>
      <point x="-208" y="-25"/>
      <point x="-244" y="-43"/>
      <point x="-269" y="-82" type="curve"/>
    </contour>
  </outline>
</glyph>
<glyph name="dvMatraUu.small" format="1">
  <advance width="0"/>
  <outline>
    <contour>
      <point x="-132" y="-157" type="line"/>
      <point x="-222" y="-214" type="line"/>
      <point x="-239" y="-200"/>
      <point x="-247" y="-181"/>
      <point x="-247" y="-162" type="curve" smooth="yes"/>
      <point x="-247" y="-128"/>
      <point x="-219" y="-96"/>
      <point x="-170" y="-96" type="curve" smooth="yes"/>
      <point x="-109" y="-96"/>
      <point x="-72" y="-147"/>
      <point x="40" y="-298" type="curve"/>
      <point x="79" y="-273" type="line"/>
      <point x="-20" y="-131"/>
      <point x="-94" y="-25"/>
      <point x="-187" y="-25" type="curve" smooth="yes"/>
      <point x="-248" y="-25"/>
      <point x="-309" y="-72"/>
      <point x="-309" y="-135" type="curve" smooth="yes"/>
      <point x="-309" y="-200"/>
      <point x="-244" y="-261"/>
      <point x="-182" y="-261" type="curve" smooth="yes"/>
      <point x="-152" y="-261"/>
      <point x="-120" y="-247"/>
      <point x="-94" y="-227" type="curve"/>
    </contour>
  </outline>
</glyph>
<glyph name="dvN" format="1">
  <advance width="340"/>
  <outline>
    <contour>
      <point x="409" y="538" type="line"/>
      <point x="418" y="558" type="line"/>
      <point x="388" y="608" type="line"/>
      <point x="-21" y="608" type="line"/>
      <point x="-30" y="588" type="line"/>
      <point x="0" y="538" type="line"/>
    </contour>
    <contour>
      <point x="42" y="320" type="line"/>
      <point x="65" y="261"/>
      <point x="109" y="201"/>
      <point x="148" y="164" type="curve"/>
      <point x="196" y="183" type="line"/>
      <point x="196" y="322" type="line"/>
      <point x="129" y="367" type="line"/>
      <point x="83" y="367" type="line"/>
    </contour>
    <contour>
      <point x="420" y="311" type="line"/>
      <point x="394" y="367" type="line"/>
      <point x="96" y="367" type="line"/>
      <point x="127" y="291" type="line"/>
      <point x="406" y="291" type="line"/>
    </contour>
  </outline>
</glyph>
<glyph name="dvNgYa" format="1">
  <advance width="1208"/>
  <outline>
    <contour>
      <point x="613" y="222"/>
      <point x="637" y="252"/>
      <point x="646" y="276" type="curve"/>
      <point x="632" y="294"/>
      <point x="603" y="321"/>
      <point x="578" y="331" type="curve"/>
      <point x="558" y="318"/>
      <point x="535" y="289"/>
      <point x="522" y="262" type="curve"/>
      <point x="537" y="241"/>
      <point x="569" y="216"/>
      <point x="592" y="207" type="curve"/>
    </contour>
    <contour>
      <point x="46" y="207" type="line"/>
      <point x="166" y="29"/>
      <point x="266" y="-26"/>
      <point x="364" y="-26" type="curve" smooth="yes"/>
      <point x="474" y="-26"/>
      <point x="540" y="43"/>
      <point x="540" y="128" type="curve" smooth="yes"/>
      <point x="540" y="211"/>
      <point x="476" y="280"/>
      <point x="387" y="300" type="curve"/>
      <point x="216" y="246" type="line"/>
      <point x="193" y="263"/>
      <point x="177" y="283"/>
      <point x="177" y="308" type="curve" smooth="yes"/>
      <point x="177" y="350"/>
      <point x="222" y="373"/>
      <point x="280" y="373" type="curve" smooth="yes"/>
      <point x="478" y="373" type="line"/>
      <point x="407" y="454" type="line"/>
      <point x="254" y="454" type="line" smooth="yes"/>
      <point x="157" y="454"/>
      <point x="106" y="402"/>
      <point x="106" y="346" type="curve" smooth="yes"/>
      <point x="106" y="271"/>
      <point x="196" y="179"/>
      <point x="288" y="165" type="curve"/>
      <point x="449" y="218" type="line"/>
      <point x="498" y="157"/>
      <point x="446" y="53"/>
      <point x="328" y="53" type="curve" smooth="yes"/>
      <point x="242" y="53"/>
      <point x="166" y="109"/>
      <point x="82" y="236" type="curve"/>
    </contour>
    <contour>
      <point x="409" y="384" type="line"/>
      <point x="487" y="373" type="line"/>
      <point x="487" y="500" type="line"/>
      <point x="429" y="551" type="line"/>
      <point x="409" y="562" type="line"/>
    </contour>
    <contour>
      <point x="688" y="538" type="line"/>
      <point x="697" y="558" type="line"/>
      <point x="667" y="608" type="line"/>
      <point x="-21" y="608" type="line"/>
      <point x="-30" y="588" type="line"/>
      <point x="0" y="538" type="line"/>
    </contour>
    <component base="dvYa.post" xOffset="621"/>
    <contour>
      <point x="429" y="-362" type="move" name="ogonek"/>
    </contour>
  </outline>
</glyph>
<glyph name="dvRMatraU" format="1">
  <advance width="620"/>
  <outline>
    <contour>
      <point x="636" y="538" type="line"/>
      <point x="645" y="558" type="line"/>
      <point x="615" y="608" type="line"/>
      <point x="169" y="608" type="line"/>
      <point x="160" y="588" type="line"/>
      <point x="190" y="538" type="line"/>
    </contour>
    <contour>
      <point x="451" y="98" type="line"/>
      <point x="536" y="157"/>
      <point x="587" y="207"/>
      <point x="587" y="278" type="curve" smooth="yes"/>
      <point x="587" y="361"/>
      <point x="516" y="435"/>
      <point x="435" y="435" type="curve" smooth="yes"/>
      <point x="348" y="435"/>
      <point x="235" y="350"/>
      <point x="125" y="252" type="curve"/>
      <point x="175" y="189" type="line"/>
      <point x="283" y="283"/>
      <point x="385" y="359"/>
      <point x="466" y="359" type="curve" smooth="yes"/>
      <point x="512" y="359"/>
      <point x="526" y="335"/>
      <point x="526" y="311" type="curve" smooth="yes"/>
      <point x="526" y="259"/>
      <point x="458" y="209"/>
      <point x="393" y="163" type="curve"/>
    </contour>
    <component base="dvRa"/>
  </outline>
</glyph>
<glyph name="dvRakar" format="1">
  <advance width="0"/>
  <outline>
    <contour>
      <point x="-33" y="-17" type="line"/>
      <point x="-156" y="-157" type="line"/>
      <point x="-98" y="-204" type="line"/>
      <point x="38" y="-39" type="line"/>
      <point x="-18" y="-42" type="line"/>
      <point x="135" y="-205" type="line"/>
      <point x="176" y="-162" type="line"/>
      <point x="36" y="-17" type="line"/>
    </contour>
  </outline>
</glyph>
<glyph name="dvRakar.small" format="1">
  <advance width="0"/>
  <outline>
    <contour>
      <point x="-33" y="-17" type="line"/>
      <point x="-156" y="-127" type="line"/>
      <point x="-97" y="-174" type="line"/>
      <point x="43" y="-39" type="line"/>
      <point x="-18" y="-42" type="line"/>
      <point x="135" y="-175" type="line"/>
      <point x="176" y="-137" type="line"/>
      <point x="39" y="-17" type="line"/>
    </contour>
  </outline>
</glyph>
<glyph name="dvRephAnusvara" format="1">
  <advance width="0"/>
  <outline>
    <contour>
      <point x="-69" y="678"/>
      <point x="-47" y="707"/>
      <point x="-38" y="730" type="curve"/>
      <point x="-51" y="747"/>
      <point x="-78" y="772"/>
      <point x="-102" y="781" type="curve"/>
      <point x="-122" y="769"/>
      <point x="-142" y="742"/>
      <point x="-155" y="716" type="curve"/>
      <point x="-142" y="697"/>
      <point x="-110" y="673"/>
      <point x="-89" y="665" type="curve"/>
    </contour>
    <component base="dvReph"/>
  </outline>
</glyph>
<glyph name="dvS" format="1">
  <advance width="436"/>
  <outline>
    <contour>
      <point x="527" y="538" type="line"/>
      <point x="536" y="558" type="line"/>
      <point x="506" y="608" type="line"/>
      <point x="202" y="608" type="line"/>
      <point x="193" y="588" type="line"/>
      <point x="223" y="538" type="line"/>
    </contour>
    <contour>
      <point x="522" y="242" type="line"/>
      <point x="512" y="311" type="line"/>
      <point x="178" y="311" type="line"/>
      <point x="179" y="242" type="line"/>
    </contour>
    <component base="dvRa"/>
  </outline>
</glyph>
<glyph name="dvSs" format="1">
  <advance width="350"/>
  <outline>
    <contour>
      <point x="466" y="538" type="line"/>
      <point x="475" y="558" type="line"/>
      <point x="445" y="608" type="line"/>
      <point x="-21" y="608" type="line"/>
      <point x="-30" y="588" type="line"/>
      <point x="0" y="538" type="line"/>
    </contour>
    <contour>
      <point x="93" y="572" type="line"/>
      <point x="374" y="219" type="line"/>
      <point x="418" y="246" type="line"/>
      <point x="141" y="590" type="line"/>
    </contour>
    <contour>
      <point x="393" y="296" type="line"/>
      <point x="361" y="241"/>
      <point x="303" y="211"/>
      <point x="250" y="211" type="curve" smooth="yes"/>
      <point x="208" y="211"/>
      <point x="171" y="229"/>
      <point x="151" y="267" type="curve"/>
      <point x="151" y="540" type="line"/>
      <point x="93" y="560" type="line"/>
      <point x="68" y="562" type="line"/>
      <point x="68" y="362" type="line" smooth="yes"/>
      <point x="68" y="243"/>
      <point x="188" y="135"/>
      <point x="287" y="135" type="curve" smooth="yes"/>
      <point x="334" y="135"/>
      <point x="396" y="159"/>
      <point x="438" y="221" type="curve"/>
    </contour>
  </outline>
</glyph>
<glyph name="dvSsTta" format="1">
  <advance width="563"/>
  <outline>
    <contour>
      <point x="471" y="22" type="line"/>
      <point x="412" y="-58"/>
      <point x="280" y="-98"/>
      <point x="201" y="-60" type="curve"/>
      <point x="179" y="-42"/>
      <point x="165" y="-13"/>
      <point x="165" y="21" type="curve" smooth="yes"/>
      <point x="165" y="117"/>
      <point x="277" y="134"/>
      <point x="333" y="154" type="curve" smooth="yes"/>
      <point x="438" y="191"/>
      <point x="478" y="278"/>
      <point x="478" y="385" type="curve" smooth="yes"/>
      <point x="478" y="506" type="line"/>
      <point x="420" y="557" type="line"/>
      <point x="395" y="568" type="line"/>
      <point x="395" y="364" type="line" smooth="yes"/>
      <point x="395" y="299"/>
      <point x="390" y="220"/>
      <point x="340" y="208" type="curve"/>
      <point x="231" y="202" type="line"/>
      <point x="162" y="184"/>
      <point x="87" y="130"/>
      <point x="87" y="47" type="curve" smooth="yes"/>
      <point x="87" y="-62"/>
      <point x="219" y="-144"/>
      <point x="331" y="-144" type="curve" smooth="yes"/>
      <point x="406" y="-144"/>
      <point x="485" y="-107"/>
      <point x="531" y="-43" type="curve"/>
    </contour>
    <contour>
      <point x="584" y="538" type="line"/>
      <point x="593" y="558" type="line"/>
      <point x="563" y="608" type="line"/>
      <point x="-23" y="608" type="line"/>
      <point x="-32" y="588" type="line"/>
      <point x="-2" y="538" type="line"/>
    </contour>
    <contour>
      <point x="91" y="572" type="line"/>
      <point x="372" y="219" type="line"/>
      <point x="416" y="246" type="line"/>
      <point x="139" y="590" type="line"/>
    </contour>
    <contour>
      <point x="395" y="364" type="line"/>
      <point x="395" y="250"/>
      <point x="320" y="210"/>
      <point x="257" y="210" type="curve" smooth="yes"/>
      <point x="210" y="210"/>
      <point x="168" y="232"/>
      <point x="149" y="267" type="curve"/>
      <point x="149" y="540" type="line"/>
      <point x="91" y="560" type="line"/>
      <point x="66" y="562" type="line"/>
      <point x="66" y="362" type="line" smooth="yes"/>
      <point x="66" y="263"/>
      <point x="149" y="172"/>
      <point x="234" y="144" type="curve"/>
      <point x="426" y="231" type="line"/>
    </contour>
  </outline>
</glyph>
<glyph name="dvSsTtha" format="1">
  <advance width="563"/>
  <outline>
    <contour>
      <point x="439" y="-135"/>
      <point x="527" y="-73"/>
      <point x="527" y="19" type="curve" smooth="yes"/>
      <point x="527" y="103"/>
      <point x="454" y="168"/>
      <point x="381" y="203" type="curve"/>
      <point x="349" y="177" type="line"/>
      <point x="404" y="148"/>
      <point x="453" y="102"/>
      <point x="453" y="46" type="curve" smooth="yes"/>
      <point x="453" y="-54"/>
      <point x="301" y="-101"/>
      <point x="201" y="-51" type="curve"/>
      <point x="177" y="-31"/>
      <point x="165" y="0"/>
      <point x="165" y="29" type="curve" smooth="yes"/>
      <point x="165" y="113"/>
      <point x="267" y="137"/>
      <point x="320" y="150" type="curve" smooth="yes"/>
      <point x="394" y="168"/>
      <point x="478" y="228"/>
      <point x="478" y="385" type="curve" smooth="yes"/>
      <point x="478" y="506" type="line"/>
      <point x="420" y="557" type="line"/>
      <point x="395" y="568" type="line"/>
      <point x="395" y="364" type="line" smooth="yes"/>
      <point x="395" y="299"/>
      <point x="390" y="220"/>
      <point x="340" y="208" type="curve"/>
      <point x="231" y="202" type="line"/>
      <point x="163" y="183"/>
      <point x="88" y="131"/>
      <point x="88" y="50" type="curve" smooth="yes"/>
      <point x="88" y="-51"/>
      <point x="206" y="-135"/>
      <point x="331" y="-135" type="curve" smooth="yes"/>
    </contour>
    <contour>
      <point x="584" y="538" type="line"/>
      <point x="593" y="558" type="line"/>
      <point x="563" y="608" type="line"/>
      <point x="-23" y="608" type="line"/>
      <point x="-32" y="588" type="line"/>
      <point x="-2" y="538" type="line"/>
    </contour>
    <contour>
      <point x="91" y="572" type="line"/>
      <point x="372" y="219" type="line"/>
      <point x="416" y="246" type="line"/>
      <point x="139" y="590" type="line"/>
    </contour>
    <contour>
      <point x="395" y="364" type="line"/>
      <point x="395" y="250"/>
      <point x="320" y="210"/>
      <point x="257" y="210" type="curve" smooth="yes"/>
      <point x="210" y="210"/>
      <point x="168" y="232"/>
      <point x="149" y="267" type="curve"/>
      <point x="149" y="540" type="line"/>
      <point x="91" y="560" type="line"/>
      <point x="66" y="562" type="line"/>
      <point x="66" y="362" type="line" smooth="yes"/>
      <point x="66" y="263"/>
      <point x="149" y="172"/>
      <point x="234" y="144" type="curve"/>
      <point x="426" y="231" type="line"/>
    </contour>
  </outline>
</glyph>
<glyph name="dvT" format="1">
  <advance width="351"/>
  <outline>
    <contour>
      <point x="440" y="368" type="line"/>
      <point x="373" y="394"/>
      <point x="321" y="409"/>
      <point x="249" y="409" type="curve"/>
      <point x="108" y="409"/>
      <point x="43" y="337"/>
      <point x="43" y="256" type="curve" smooth="yes"/>
      <point x="43" y="168"/>
      <point x="118" y="66"/>
      <point x="227" y="-38" type="curve"/>
      <point x="264" y="-3" type="line"/>
      <point x="157" y="102"/>
      <point x="130" y="173"/>
      <point x="130" y="221" type="curve" smooth="yes"/>
      <point x="130" y="297"/>
      <point x="200" y="325"/>
      <point x="273" y="325" type="curve" smooth="yes"/>
      <point x="319" y="325"/>
      <point x="370" y="314"/>
      <point x="420" y="295" type="curve"/>
    </contour>
    <contour>
      <point x="442" y="538" type="line"/>
      <point x="451" y="558" type="line"/>
      <point x="421" y="608" type="line"/>
      <point x="-21" y="608" type="line"/>
      <point x="-30" y="588" type="line"/>
      <point x="0" y="538" type="line"/>
    </contour>
  </outline>
</glyph>
<glyph name="dvTRa" format="1">
  <advance width="581"/>
  <outline>
    <contour>
      <point x="435" y="352" type="line" smooth="yes"/>
      <point x="187" y="137" type="line"/>
      <point x="247" y="88" type="line"/>
      <point x="470" y="295" type="line"/>
    </contour>
    <contour>
      <point x="440" y="408" type="line"/>
      <point x="239" y="408" type="line" smooth="yes"/>
      <point x="98" y="408"/>
      <point x="43" y="336"/>
      <point x="43" y="258" type="curve" smooth="yes"/>
      <point x="43" y="167"/>
      <point x="118" y="66"/>
      <point x="227" y="-38" type="curve"/>
      <point x="264" y="-3" type="line"/>
      <point x="157" y="102"/>
      <point x="130" y="172"/>
      <point x="130" y="223" type="curve" smooth="yes"/>
      <point x="130" y="289"/>
      <point x="175" y="327"/>
      <point x="280" y="327" type="curve" smooth="yes"/>
      <point x="441" y="327" type="line"/>
    </contour>
    <contour>
      <point x="602" y="538" type="line"/>
      <point x="611" y="558" type="line"/>
      <point x="581" y="608" type="line"/>
      <point x="-21" y="608" type="line"/>
      <point x="-30" y="588" type="line"/>
      <point x="0" y="538" type="line"/>
    </contour>
    <contour>
      <point x="408" y="5" type="line"/>
      <point x="467" y="-33" type="line"/>
      <point x="491" y="-26" type="line"/>
      <point x="491" y="500" type="line"/>
      <point x="433" y="551" type="line"/>
      <point x="408" y="562" type="line"/>
    </contour>
  </outline>
</glyph>
<glyph name="dvV" format="1">
  <advance width="395"/>
  <outline>
    <contour>
      <point x="267" y="449" type="line"/>
      <point x="155" y="479"/>
      <point x="34" y="409"/>
      <point x="34" y="292" type="curve" smooth="yes"/>
      <point x="34" y="170"/>
      <point x="165" y="80"/>
      <point x="283" y="80" type="curve" smooth="yes"/>
      <point x="425" y="80"/>
      <point x="524" y="209"/>
      <point x="420" y="359" type="curve"/>
      <point x="381" y="342" type="line"/>
      <point x="444" y="233"/>
      <point x="353" y="143"/>
      <point x="239" y="143" type="curve" smooth="yes"/>
      <point x="210" y="143"/>
      <point x="175" y="149"/>
      <point x="144" y="171" type="curve"/>
      <point x="72" y="253"/>
      <point x="117" y="383"/>
      <point x="246" y="383" type="curve" smooth="yes"/>
      <point x="307" y="383"/>
      <point x="351" y="354"/>
      <point x="420" y="291" type="curve"/>
      <point x="420" y="359" type="line"/>
    </contour>
    <contour>
      <point x="516" y="538" type="line"/>
      <point x="525" y="558" type="line"/>
      <point x="495" y="608" type="line"/>
      <point x="-21" y="608" type="line"/>
      <point x="-30" y="588" type="line"/>
      <point x="0" y="538" type="line"/>
    </contour>
  </outline>
</glyph>
<glyph name="quotesingleleft" format="1">
  <advance width="295"/>
  <outline>
    <contour>
      <point x="145" y="718" type="line"/>
      <point x="3" y="638"/>
      <point x="28" y="522"/>
      <point x="28" y="522" type="curve"/>
      <point x="28" y="522"/>
      <point x="31" y="479"/>
      <point x="97" y="452" type="curve"/>
      <point x="97" y="452"/>
      <point x="152" y="476"/>
      <point x="158" y="532" type="curve"/>
      <point x="106" y="572" type="line"/>
      <point x="106" y="572"/>
      <point x="110" y="633"/>
      <point x="174" y="680" type="curve"/>
    </contour>
  </outline>
</glyph>
<glyph name="quotesingleright" format="1">
  <advance width="351"/>
  <outline>
    <contour>
      <point x="164" y="680" type="line"/>
      <point x="228" y="633"/>
      <point x="232" y="572"/>
      <point x="232" y="572" type="curve"/>
      <point x="180" y="532" type="line"/>
      <point x="186" y="476"/>
      <point x="241" y="452"/>
      <point x="241" y="452" type="curve"/>
      <point x="307" y="479"/>
      <point x="310" y="522"/>
      <point x="310" y="522" type="curve"/>
      <point x="310" y="522"/>
      <point x="335" y="638"/>
      <point x="193" y="718" type="curve"/>
    </contour>
  </outline>
</glyph>
